<?xml version="1.0" standalone="no"?>
<!DOCTYPE svg PUBLIC "-//W3C//DTD SVG 20010904//EN"
 "http://www.w3.org/TR/2001/REC-SVG-20010904/DTD/svg10.dtd">
<svg version="1.0" xmlns="http://www.w3.org/2000/svg"
 width="277.000000pt" height="277.000000pt" viewBox="0 0 277.000000 277.000000"
 preserveAspectRatio="xMidYMid meet">
<metadata>
Created by potrace 1.11, written by Peter Selinger 2001-2013
</metadata>
<g transform="translate(0.000000,277.000000) scale(0.100000,-0.100000)"
fill="#000000" stroke="none">
<path d="M3 1384 l0 -1384 1384 0 1383 0 -2 1383 -3 1382 -1381 1 -1381 1 0
-1383z m2713 1324 c5 -6 10 -2530 5 -2639 -1 -14 -54 -16 -534 -15 l-532 1
-317 520 c-175 286 -325 534 -335 552 -10 17 -96 159 -191 315 -96 156 -179
292 -185 303 -29 48 -69 113 -185 305 -273 447 -375 616 -387 640 l-13 26
1333 -1 c733 0 1337 -3 1341 -7z"/>
<path d="M782 2308 c7 -14 49 -83 93 -155 l80 -131 325 -4 c275 -4 332 -7 370
-21 147 -56 203 -128 199 -258 -6 -201 -157 -297 -468 -299 l-73 0 16 -22 c9
-13 19 -30 23 -38 4 -8 45 -78 92 -155 126 -205 292 -479 321 -528 14 -24 54
-91 90 -150 l65 -107 192 0 193 0 -53 83 c-166 256 -303 466 -371 571 -42 65
-76 119 -74 121 2 1 37 20 78 41 144 75 250 207 285 356 20 88 14 253 -14 338
-54 168 -202 296 -398 346 -35 8 -73 18 -85 21 -13 3 -220 8 -461 10 l-439 5
14 -24z"/>
</g>
</svg>
