<?xml version="1.0" encoding="utf-8"?>
<!-- Generator: Adobe Illustrator 21.0.2, SVG Export Plug-In . SVG Version: 6.00 Build 0)  -->
<svg version="1.1" id="Layer_1" xmlns="http://www.w3.org/2000/svg" xmlns:xlink="http://www.w3.org/1999/xlink" x="0px" y="0px"
	 viewBox="0 0 759 615.3" style="enable-background:new 0 0 759 615.3;" xml:space="preserve">
<style type="text/css">
	.st0{fill:none;stroke:#007169;stroke-width:12;stroke-miterlimit:10;}
	.st1{fill:#007169;}
</style>
<path class="st0" d="M135,512.3h293.4l10.4,18.3h17l7.8-20.7c0,0,11.7,0,23.5,0c-7.8-65.5,28.7-89.1,37.8-95.6
	c23.8-14.9,23.6-36.2,0-36.2c-47.6,0-66.5,76.3-66.5,76.3H99.8c0,0-15-107.6-68.5-107.6c-38.1,0-34.7,41.9-1.5,56.1
	C55.4,413.7,69,433.6,76.3,511c6.4,0,19.6,0,19.6,0l9.1,19.6h22.2L135,512.3z"/>
<path class="st1" d="M28.9,332.9c14.2-24,46.9-29.8,75.3-29.8s159.9,45,221,52.8c61.1,7.8,180,8.3,192.7,8.3
	c-52.3,8.3-74.3,74.2-74.3,74.2H114.3C114.3,438.3,99.7,324.6,28.9,332.9z"/>
<polygon class="st0" points="268,137.7 476.4,197.4 470.5,215 261.2,158.3 "/>
<path class="st0" d="M273.4,119.2l207.8,61.6c0,0,23.5-80.2-72.4-112.5S273.4,119.2,273.4,119.2z"/>
<path class="st0" d="M679.8,496.7C766.8,192.5,461.1,100,461.1,100"/>
<path class="st1" d="M549.7,530.6h207.4c0,0-29.7-39.8-101.9-39.8S549.7,530.6,549.7,530.6z"/>
</svg>
