<?xml version="1.0" encoding="UTF-8"?>
<svg enable-background="new 0 0 250 202.7" version="1.1" viewBox="0 0 250 202.7" xml:space="preserve" xmlns="http://www.w3.org/2000/svg">
<style type="text/css">
	.st0{fill:#007169;}
</style>
		<path class="st0" d="m123.3 169.4c-37.9 0-68.8-30.9-68.8-68.8 0-18.4 7.2-35.7 20.1-48.7 13-13 30.3-20.2 48.6-20.2 18.5 0.1 35.8 7.3 48.8 20.3s20.2 30.3 20.2 48.7-7.2 35.6-20.2 48.6-30.3 20.1-48.7 20.1zm0-133.6c-35.7 0-64.8 29.1-64.8 64.9 0 35.7 29.1 64.8 64.8 64.8 35.8 0 64.9-29.1 64.9-64.8 0-17.3-6.7-33.6-19-45.9s-28.6-19-45.9-19z"/>
		<path class="st0" d="m123.3 169.4c-11 0-21.4-7.3-29-20.6-7.5-12.9-11.6-30-11.6-48.2s4.1-35.3 11.6-48.3c7.7-13.3 18-20.6 29-20.6 11.1 0 21.4 7.3 29 20.6 7.5 12.9 11.6 30.1 11.6 48.3s-4.1 35.3-11.6 48.2c-7.6 13.3-18 20.6-29 20.6zm0-133.6c-9.6 0-18.7 6.6-25.6 18.6-7.1 12.3-11 28.8-11 46.3s3.9 33.9 11 46.2c6.9 12 16 18.6 25.6 18.6s18.7-6.6 25.6-18.6c7.1-12.3 11-28.7 11-46.2s-3.9-33.9-11-46.3c-6.9-12-16-18.6-25.6-18.6z"/>
		<rect class="st0" x="63.3" y="70.1" width="120.5" height="4"/>
		<rect class="st0" x="56.3" y="98.7" width="133.8" height="4"/>
		<rect class="st0" x="121.2" y="33.7" width="4" height="133.8"/>
			<rect class="st0" transform="matrix(1 -.0024414 .0024414 1 -.315 .3018)" x="62.8" y="127.2" width="121.3" height="4"/>
		<path class="st0" d="m42 186.3h25.5c0-1.1-3.4-5.9-8.5-7.5v-3.7s7-0.7 7.5-2.3c-2.3-1.3-2.6-3.2-2.8-4.1-0.3-2.2 1-10.4-2-13.6-0.6-0.5-2-1.4-3.9-1.2-1.7-1.3-3.2-1.7-3.7-1.7-3.8 0.2-6.2 2.2-7.4 5-1 2.5-0.7 8.6-0.9 11s-2 4-3 4.4c3.2 2.4 7.2 2.3 7.2 2.3s0 2.5 0 3.8c-2.9 0.8-8 5.2-8 7.6z"/>
		<path class="st0" d="m196.4 27.2c-0.5 2.2-2.1 4.2-2.4 4.6-0.1 0.4 0 3.1 0.1 3.4 0.8 1.9 6.5 3.1 8.7 5.3 1 0.9 1.6 3 1.2 5.5-1.3 0-26.9-0.1-27.9 0 0 0-0.5-3.2 1-5.4 1.4-2 8.2-4.1 8.4-5.8 0.1-0.8 0.1-2.9 0.1-2.9s-2-3.2-2.2-5c-0.4-0.2-0.8-0.5-0.9-1.1-0.1-0.4-0.2-2.1 0-3.5 0.1-0.5 0.5-1 0.7-1.1v-4.7c0-6.1 13.9-6.5 13.9 0v4.7c0.3 0.1 0.6 0.6 0.7 1.1 0.2 1.4 0.1 3 0 3.5-0.1 0.6-0.5 0.9-0.9 1.1l-0.5 0.3z"/>
			<path class="st0" d="m33.8 142.9c-6.2-13.3-9.4-27.5-9.4-42.2 0-26.7 10.4-51.7 29.2-70.5s43.8-29.2 70.4-29.2c14.7 0 28.9 3.2 42.2 9.4l-1.7 3.6c-12.8-6-26.4-9-40.5-9-25.5 0-49.6 10-67.6 28-18.1 18.1-28 42.1-28 67.6 0 14.2 3 27.8 9 40.5l-3.6 1.8z"/>
			<path class="st0" d="m124 200.2c-15.2 0-29.7-3.3-43.2-9.8l1.7-3.6c12.9 6.3 26.9 9.4 41.5 9.4 25.5 0 49.6-9.9 67.6-28 18.1-18.1 28-42.1 28-67.6 0-14.5-3.2-28.4-9.4-41.5l3.6-1.7c6.5 13.6 9.8 28.1 9.8 43.2 0 26.6-10.4 51.6-29.2 70.5-18.8 18.8-43.8 29.1-70.4 29.1z"/>
		<polygon class="st0" points="207.1 72.5 203.5 71 210.4 54.6 226.8 61.5 225.3 65.1 212.5 59.7"/>
</svg>
