<?xml version="1.0" encoding="UTF-8"?>
<svg enable-background="new 0 0 250 202.7" version="1.1" viewBox="0 0 250 202.7" xml:space="preserve" xmlns="http://www.w3.org/2000/svg">
<style type="text/css">
	.st0{fill:#007169;}
</style>
	<path class="st0" d="m221.2 87.7h-32.4l5.9-32.5c0.2-1-0.1-2-0.7-2.7-0.6-0.8-1.5-1.2-2.5-1.2h-17.4v-3.5c11.2-1.6 20.7-11.3 20.7-22.9 0-12.8-10.4-23.1-23.1-23.1-12.8 0-23.1 10.4-23.1 23.1 0 11.7 9.7 21.3 20.9 22.9v3.5h-17.5c-1 0-1.9 0.4-2.5 1.2s-0.9 1.7-0.7 2.7l3 16.6v0.1l2.9 15.9h-39.1v-46.4c0-1.8-1.5-3.3-3.3-3.3h-40c-1.8 0-3.3 1.5-3.3 3.3v5.3h-16.6c-1.4 0-2.7 1-3.2 2.3l-12.4 38.8h-7.5c-1.8 0-3.3 1.5-3.3 3.3v79.4c0 1.8 1.5 3.3 3.3 3.3h8.1c-0.7 2.4-0.8 4.8-0.3 7.2 1.1 5.7 0.2 9.5-3.4 13.5l-0.3 0.3c-0.9 1-1.1 2.4-0.6 3.5 0.5 1.2 1.7 2 3 2h2.2c4.8 0 9.1-1.8 12.4-5.4 4.4-4.6 6.2-11 6-15-0.1-2.2 0.3-4.3 1.2-6.2h135.1c0.9 1.9 1.3 3.9 1.2 6.2-0.2 4 1.6 10.3 6 15 3.3 3.5 7.6 5.4 12.4 5.4h2.2c1.3 0 2.5-0.8 3-2s0.3-2.6-0.6-3.5l-0.3-0.3c-3.6-4-4.5-7.7-3.4-13.7 0.5-2.3 0.3-4.6-0.4-7h8.1c1.8 0 3.3-1.5 3.3-3.3v-79.5c0.4-1.8-1.1-3.3-3-3.3zm-65.8-21.1l-2.1-10.5h36.6l-6.2 31.7h-24.1l-2.8-14.1-1.4-7.1zm-44.7 21.1h-15.2v-45h15.2v45zm-37-45h17.2v45h-17.2v-45zm-4.7 45h-7.5l7.5-24.1v24.1zm-15.4-36.4h14.2l-11.2 36.5h-14.9l11.9-36.5zm-23 43.1h189.4v33.1h-189.4v-33.1zm189.4 72.7h-189.4v-33.1h189.3l0.1 33.1z"/>
	<path class="st0" d="m112 110.4h10.9v3.3c0 1.8 0.6 3.3 2.4 3.3s2.4-1.5 2.4-3.3v-3.3h10.9c1.8 0 3.3-0.5 3.3-2.3s-1.5-2.4-3.3-2.4h-26.6c-1.8 0-3.3 0.6-3.3 2.4s1.5 2.3 3.3 2.3z"/>
	<path class="st0" d="m111.9 151.3h10.9v3.3c0 1.8 0.6 3.3 2.4 3.3s2.4-1.5 2.4-3.3v-3.3h10.9c1.8 0 3.3-0.5 3.3-2.3s-1.5-2.4-3.3-2.4h-26.5c-1.8 0-3.3 0.6-3.3 2.4-0.1 1.8 1.4 2.3 3.2 2.3z"/>
	<path class="st0" d="m112 110.4h10.9v3.3c0 1.8 0.6 3.3 2.4 3.3s2.4-1.5 2.4-3.3v-3.3h10.9c1.8 0 3.3-0.5 3.3-2.3s-1.5-2.4-3.3-2.4h-26.6c-1.8 0-3.3 0.6-3.3 2.4s1.5 2.3 3.3 2.3z"/>
	<path class="st0" d="m111.9 151.3h10.9v3.3c0 1.8 0.6 3.3 2.4 3.3s2.4-1.5 2.4-3.3v-3.3h10.9c1.8 0 3.3-0.5 3.3-2.3s-1.5-2.4-3.3-2.4h-26.5c-1.8 0-3.3 0.6-3.3 2.4-0.1 1.8 1.4 2.3 3.2 2.3z"/>
</svg>
