<?xml version="1.0" encoding="UTF-8"?>
<svg enable-background="new 0 0 250 202.7" version="1.1" viewBox="0 0 250 202.7" xml:space="preserve" xmlns="http://www.w3.org/2000/svg">
<style type="text/css">
	.st0{fill:#007169;}
</style>
			<path class="st0" d="m3.6 108.4c-0.7 0-1.4-0.3-1.9-0.9-0.9-1-0.7-2.6 0.3-3.4l124.3-103.1 121.7 103.1c1 0.9 1.2 2.4 0.3 3.4s-2.4 1.2-3.4 0.3l-118.6-100.5-121.1 100.5c-0.5 0.4-1 0.6-1.6 0.6z"/>
			<path class="st0" d="m208.6 201.7c-1.4 0-2.4-1.1-2.4-2.4v-90.8l-80.9-68.5-81.4 68.5v90.7c0 1.4-1.1 2.4-2.4 2.4s-2.4-1.1-2.4-2.4v-91.9c0-0.7 0.3-1.4 0.9-1.9l83.9-70.6c0.9-0.8 2.2-0.8 3.2 0l83.3 70.6c0.5 0.5 0.9 1.1 0.9 1.9v91.9c-0.3 1.4-1.4 2.5-2.7 2.5z"/>
				<path class="st0" d="m75.2 118.2l7.4 7.4 24.6 24.6-23.9 23.8-0.3 0.3c0 0.1-0.1 0.1-0.1 0.2s-0.1 0.2-0.1 0.2l-7.4 22.1c-0.2 0.7-0.1 1.5 0.5 2 0.5 0.5 1.3 0.7 2 0.5l22.1-7.4c0.1 0 0.1-0.1 0.2-0.1s0.1-0.1 0.2-0.1l0.1-0.1h0.1l0.1-0.1 23.9-23.9 32 32c0.8 0.8 2 0.8 2.8 0l15.5-15.5c0.4-0.4 0.6-0.9 0.6-1.4s-0.2-1-0.6-1.4l-32-32 28.8-28.8c3.4-3.4 4-7.6 1.5-10.1l-8.8-8.8c-1-1-2.3-1.6-3.8-1.6-2.1 0-4.3 1.1-6.3 3.1l-6.9 6.9-7.3 7.3-14.5 14.5-32-32c-0.4-0.4-0.9-0.6-1.4-0.6s-1 0.2-1.4 0.6l-15.5 15.5c-0.4 0.4-0.6 0.9-0.6 1.4-0.1 0.7 0.1 1.2 0.5 1.5zm95.5 64.5l-12.7 12.7-3.9-3.9 4.5-4.5c0.4-0.4 0.6-0.9 0.6-1.4s-0.2-1-0.6-1.4-0.9-0.6-1.4-0.6-1 0.2-1.4 0.6l-4.5 4.5-3.9-3.9 2.8-2.8c0.4-0.4 0.6-0.9 0.6-1.4s-0.2-1-0.6-1.4-0.9-0.6-1.4-0.6-1 0.2-1.4 0.6l-2.8 2.8-3.9-3.9 2.8-2.8c0.4-0.4 0.6-0.9 0.6-1.4s-0.2-1-0.6-1.4-0.9-0.6-1.4-0.6-1 0.2-1.4 0.6l-2.8 2.8-3.9-3.9 4.5-4.5c0.4-0.4 0.6-0.9 0.6-1.4s-0.2-1-0.6-1.4-0.9-0.6-1.4-0.6-1 0.2-1.4 0.6l-4.4 4.6-3.7-3.7 12.7-12.7 30.4 30.4zm-22-68.5l11.9 11.9-4.5 4.5-11.9-11.9 4.5-4.5zm-7.4 7.4l11.9 11.9-30 30-24.7 24.7c-1-0.2-1.8-1.2-2.3-1.9-1.1-1.9-1.1-3.7-0.9-4.1l45.4-45.4c0.8-0.8 0.8-2 0-2.8-0.4-0.4-0.9-0.6-1.4-0.6s-1 0.2-1.4 0.6l-45.4 45.4c-0.4 0.3-2.3 0.3-4.1-0.9-0.7-0.4-1.7-1.2-1.9-2.3l54.8-54.6zm-31.4 25.8l-3-3 2.8-2.8c0.4-0.4 0.6-0.9 0.6-1.4s-0.2-1-0.6-1.4-0.9-0.6-1.4-0.6-1 0.2-1.4 0.6l-2.8 2.8-3.9-3.9 2.8-2.8c0.4-0.4 0.6-0.9 0.6-1.4s-0.2-1-0.6-1.4-0.9-0.6-1.4-0.6-1 0.2-1.4 0.6l-2.8 2.8-3.9-3.9 4.5-4.5c0.4-0.4 0.6-0.9 0.6-1.4s-0.2-1-0.6-1.4-0.9-0.6-1.4-0.6-1 0.2-1.4 0.6l-4.5 4.5-3.9-3.9 2.8-2.8c0.4-0.4 0.6-0.9 0.6-1.4s-0.2-1-0.6-1.4-0.9-0.6-1.4-0.6-1 0.2-1.4 0.6l-2.8 2.8-4.6-4.6 12.6-12.9 30.6 30.6-12.7 12.8z"/>
</svg>
