<?xml version="1.0" encoding="utf-8"?>
<!-- Generator: Adobe Illustrator 21.0.2, SVG Export Plug-In . SVG Version: 6.00 Build 0)  -->
<svg version="1.1" id="Layer_1" xmlns="http://www.w3.org/2000/svg" xmlns:xlink="http://www.w3.org/1999/xlink" x="0px" y="0px"
	 viewBox="0 0 615.3 411" style="enable-background:new 0 0 615.3 411;" xml:space="preserve">
<style type="text/css">
	.st0{fill:none;stroke:#007170;stroke-width:18;stroke-miterlimit:10;}
	.st1{fill:#007170;}
</style>
<g>
	<g>
		<path class="st0" d="M604.6,88.3v270.2c0,11.4-13,41.9-47.8,41.9H56.3c-19.9,0-45.1-16.1-45.1-46L10.7,88.3
			c0-26.9,25.4-46.5,56.8-15.2l198.8,164.8c18.5,19.2,66.9,17.9,85.7,0L550.3,73.1C581.2,41.7,604.6,61.1,604.6,88.3z"/>
	</g>
	<path class="st1" d="M92.4,3.2c-13.6,0-16.5,13.3-6.1,23.7l174.8,147.9c18.8,19.2,67.2,17.9,85.9,0L521.1,29
		c10.6-10.6,5.7-25.3-8.4-25.3L92.4,3.2z"/>
</g>
</svg>
