<?xml version="1.0" encoding="utf-8"?>
<!-- Generator: Adobe Illustrator 21.0.2, SVG Export Plug-In . SVG Version: 6.00 Build 0)  -->
<svg version="1.1" id="Layer_1" xmlns="http://www.w3.org/2000/svg" xmlns:xlink="http://www.w3.org/1999/xlink" x="0px" y="0px"
	 viewBox="0 0 411 615.3" style="enable-background:new 0 0 411 615.3;" xml:space="preserve">
<style type="text/css">
	.st0{fill:none;stroke:#007170;stroke-width:18;stroke-miterlimit:10;}
	.st1{fill:#007170;}
</style>
<g>
	<g>
		<path class="st0" d="M205.5,9.8C98.2,9.8,10.9,97.1,10.9,204.4c0,43.2,27.6,113.7,84.4,215.4c40.2,72,79.7,131.9,81.3,134.5
			l28.9,43.8l28.9-43.8c1.7-2.5,41.2-62.5,81.3-134.5c56.8-101.7,84.4-172.2,84.4-215.4C400.1,97.1,312.8,9.8,205.5,9.8L205.5,9.8z"
			/>
	</g>
	<path class="st1" d="M205.5,304c-55.7,0-100.9-45.2-100.9-100.9s45.2-100.9,100.9-100.9s100.9,45.2,100.9,100.9
		C306.3,258.8,261.2,304,205.5,304L205.5,304z"/>
</g>
</svg>
