<?xml version="1.0" encoding="utf-8"?>
<!-- Generator: Adobe Illustrator 21.0.2, SVG Export Plug-In . SVG Version: 6.00 Build 0)  -->
<svg version="1.1" id="Capa_1" xmlns="http://www.w3.org/2000/svg" xmlns:xlink="http://www.w3.org/1999/xlink" x="0px" y="0px"
	 viewBox="0 0 672.8 610.6" style="enable-background:new 0 0 672.8 610.6;" xml:space="preserve">
<style type="text/css">
	.st0{fill:#007169;}
	.st1{fill:none;stroke:#007169;stroke-width:10;stroke-miterlimit:10;}
	.st2{fill:#F8F8F8;}
</style>
<g>
	<g>
		<g>
			<path class="st0" d="M-254.6,698.7c-3.8-1.3-8.1-0.1-10.6,3.1l-439.1,553.6c-3.3,4.1-2.6,10.1,1.5,13.4c1.7,1.3,3.8,2.1,5.9,2.1
				h439.1c5.3,0,9.5-4.3,9.5-9.5V707.7C-248.2,703.6-250.7,700-254.6,698.7z M-267.2,793.6h-19.1v19.1h19.1v38.2h-19.1V870h19.1
				v38.2h-19.1v19.1h19.1v38.2h-19.1v19.1h19.1v38.2h-19.1v19.1h19.1v38.2h-19.1v19.1h19.1v38.2h-19.1v19.1h19.1v38.2h-19.1v19.1
				h19.1v38.2h-38.2v-19.1h-19.1v19.1h-38.2v-38.2h-19.1v38.2H-420v-19.1h-19.1v19.1h-38.2v-38.2h-19.1v38.2h-38.2v-19.1h-19.1v19.1
				h-38.2v-38.2H-611v38.2h-66l409.8-516.7V793.6z"/>
		</g>
	</g>
	<g>
		<g>
			<path class="st0" d="M-330.9,917.9c-3.8-1.3-8.1-0.1-10.6,3.1l-204.7,258c-3.3,4.1-2.6,10.1,1.5,13.4c1.7,1.3,3.8,2.1,5.9,2.1
				h204.7c5.3,0,9.5-4.3,9.5-9.5V926.9C-324.5,922.8-327.1,919.2-330.9,917.9z"/>
		</g>
	</g>
</g>
<g>
	<path class="st0" d="M-1635.3,744.7v526.5h658.1V744.7H-1635.3z M-995.8,1243.4L-995.8,1243.4c0,3.3-1.2,6.2-3.5,8.7
		c-2.4,2.4-5.2,3.6-8.4,3.6h-598.6c-3.2,0-6-1.2-8.4-3.6s-3.6-5.3-3.6-8.7V775.6c0-3.3,1.2-6.2,3.6-8.7c2.4-2.4,5.2-3.6,8.4-3.6
		h598.7c3.2,0,6,1.2,8.4,3.6c2.4,2.4,3.5,5.3,3.5,8.7L-995.8,1243.4L-995.8,1243.4z"/>
	<path class="st1" d="M-1481.7,967.6c18.3,0,33.8-6.4,46.6-19.2c12.8-12.8,19.2-28.3,19.2-46.6s-6.4-33.8-19.2-46.6
		c-12.8-12.8-28.3-19.2-46.6-19.2c-18.3,0-33.8,6.4-46.6,19.2c-12.8,12.8-19.2,28.3-19.2,46.6s6.4,33.8,19.2,46.6
		C-1515.5,961.2-1500,967.6-1481.7,967.6z"/>
	<polygon class="st0" points="-1383,1066.3 -1437.9,1011.5 -1547.5,1121.2 -1547.5,1187 -1064.9,1187 -1064.9,1033.4 -1207.5,890.8 
			"/>
</g>
<g>
	<g>
		<path class="st0" d="M-1027.2,230.1l36.9,361h-624.8l43.3-361h118.4h307.8L-1027.2,230.1 M-1010,214.9h-30.5h-113h-293.9h-113
			h-29.9l-3.7,29.7l-41.3,327.8l-4.8,38.2h38.5h596.5h37.7l-4-37.5l-35.2-327.8L-1010,214.9L-1010,214.9z"/>
	</g>
	<g>
		<path class="st0" d="M-1178.6,103.8C-1184.5,58.6-1208.1,0-1300.9,0s-116.4,58.6-122.3,103.8c-3.2,24.8-1.4,50,3.7,74.4
			c28.4,134.4,98.5,215,115,232.6c1.9,2.1,5.2,2.1,7.1,0c16.6-17.6,86.7-98.2,115-232.6C-1177.1,153.7-1175.3,128.6-1178.6,103.8z
			 M-1300.9,191.3c-39.6,0-71.7-32.1-71.7-71.7s32.1-71.7,71.7-71.7s71.7,32.1,71.7,71.7C-1229.2,159.2-1261.3,191.3-1300.9,191.3z"
			/>
	</g>
	<g>
		<g>
			<path class="st0" d="M-1103.5,334.3l-16.2-5c-0.1,0-12.7-3.9-30.7-6.7l-16.8-2.6l5.3-33.5l16.8,2.6c20.7,3.2,34.9,7.7,35.5,7.8
				l16.2,5L-1103.5,334.3z"/>
		</g>
		<g>
			<path class="st0" d="M-1415.5,528.6c-4.8,0-9.5-0.1-14.3-0.4l-16.9-0.9l1.7-33.9l16.9,0.9c4.2,0.2,8.4,0.3,12.6,0.3
				c18.6,0,34.9-2.3,48.4-6.7l16.1-5.3l10.6,32.2l-16.1,5.3C-1373.4,525.7-1393.3,528.6-1415.5,528.6z M-1303.3,484.8l-30.4-15
				l7.5-15.2c5.5-11.3,8.4-25.4,8.4-41.8c0-6.4,0.3-12.7,0.9-18.6l1.6-16.9l33.8,3.2l-1.6,16.9c-0.5,4.8-0.7,10-0.7,15.4
				c0,21.7-4,40.8-11.8,56.8L-1303.3,484.8z M-1274.3,358l-24.9-23.1l11.5-12.4c16.9-18.2,40.3-29.8,69.6-34.5l16.7-2.7l5.4,33.5
				l-16.7,2.7c-21.6,3.5-38.5,11.5-50.1,24L-1274.3,358z"/>
		</g>
		<g>
			<path class="st0" d="M-1483.9,521.6l-16.5-3.9c-20.3-4.8-33.7-9.4-34.2-9.5l-16-5.5l11-32.1l16,5.5c0.1,0,12.5,4.3,31,8.6
				l16.5,3.9L-1483.9,521.6z"/>
		</g>
	</g>
</g>
<g>
	<g>
		<path class="st2" d="M613.2,230.1l36.9,361H25.2l43.3-361h118.4h307.8L613.2,230.1 M630.3,214.9h-30.5h-113h-294h-113H49.9
			l-3.7,29.7L4.8,572.4L0,610.6h38.5H635h37.7l-4-37.5l-35.2-327.8L630.3,214.9L630.3,214.9z"/>
	</g>
	<g>
		<path class="st2" d="M461.7,103.8C455.8,58.6,432.2,0,339.4,0S223,58.6,217.1,103.8c-3.2,24.8-1.4,50,3.7,74.4
			c28.4,134.4,98.5,215,115,232.6c1.9,2.1,5.2,2.1,7.1,0c16.6-17.6,86.7-98.2,115-232.6C463.2,153.7,465,128.6,461.7,103.8z
			 M339.4,191.3c-39.6,0-71.7-32.1-71.7-71.7s32.1-71.7,71.7-71.7s71.7,32.1,71.7,71.7C411.1,159.2,379,191.3,339.4,191.3z"/>
	</g>
	<g>
		<g>
			<path class="st2" d="M536.8,334.3l-16.2-5c-0.1,0-12.7-3.9-30.7-6.7l-16.8-2.6l5.3-33.5l16.8,2.6c20.7,3.2,34.9,7.7,35.5,7.8
				l16.2,5L536.8,334.3z"/>
		</g>
		<g>
			<path class="st2" d="M224.8,528.6c-4.8,0-9.5-0.1-14.3-0.4l-16.9-0.9l1.7-33.9l16.9,0.9c4.2,0.2,8.4,0.3,12.6,0.3
				c18.6,0,34.9-2.3,48.4-6.7l16.1-5.3l10.6,32.2l-16.1,5.3C266.9,525.7,247,528.6,224.8,528.6z M337,484.8l-30.4-15l7.5-15.2
				c5.5-11.3,8.4-25.4,8.4-41.8c0-6.4,0.3-12.7,0.9-18.6l1.6-16.9l33.8,3.2l-1.6,16.9c-0.5,4.8-0.7,10-0.7,15.4
				c0,21.7-4,40.8-11.8,56.8L337,484.8z M366,358l-24.9-23.1l11.5-12.4c16.9-18.2,40.3-29.8,69.6-34.5l16.7-2.7l5.4,33.5l-16.7,2.7
				c-21.6,3.5-38.5,11.5-50.1,24L366,358z"/>
		</g>
		<g>
			<path class="st2" d="M156.4,521.6l-16.5-3.9c-20.3-4.8-33.7-9.4-34.2-9.5l-16-5.5l11-32.1l16,5.5c0.1,0,12.5,4.3,31,8.6l16.5,3.9
				L156.4,521.6z"/>
		</g>
	</g>
</g>
<g>
	<g>
		<polygon class="st0" points="-357.1,42.9 -357.1,85.8 -432.2,85.8 -432.2,42.9 -689.4,42.9 -689.4,85.8 -764.5,85.8 -764.5,42.9 
			-855.6,42.9 -855.6,160.8 -266.1,160.8 -266.1,42.9 		"/>
	</g>
	<g>
		<path class="st2" d="M-266,627.1h-589.6V155.4H-266V627.1z M-844.9,616.4h568.1V166.2h-568.1V616.4z"/>
	</g>
	<g>
		<path class="st0" d="M-453.6,235.8H-475h-75h-21.4h-75H-668h-96.5v96.5v21.4v75v21.4v96.5h96.5h21.4h75h21.4h75h21.4h96.5v-96.5
			v-21.4v-75v-21.4v-96.5L-453.6,235.8L-453.6,235.8z M-550.1,257.3h75v75h-75V257.3z M-475,428.8h-75v-75h75V428.8z M-646.5,353.7
			h75v75h-75V353.7z M-646.5,257.3h75v75h-75V257.3z M-743,257.3h75v75h-75V257.3z M-743,353.7h75v75h-75V353.7z M-668,525.3h-75
			v-75h75V525.3z M-571.5,525.3h-75v-75h75V525.3z M-475,525.3h-75v-75h75V525.3z M-378.6,525.3h-75v-75h75V525.3z M-378.6,428.8
			h-75v-75h75V428.8z M-453.6,332.3v-75h75v75H-453.6z"/>
	</g>
	<g>
		<rect x="-764.5" y="0" class="st2" width="75" height="85.8"/>
	</g>
	<g>
		<rect x="-432.2" y="0" class="st2" width="75" height="85.8"/>
	</g>
	<g>
		<rect x="-550.1" y="353.7" class="st2" width="75" height="75"/>
	</g>
	<g>
		<rect x="-743" y="257.3" class="st2" width="75" height="75"/>
	</g>
</g>
</svg>
