<?xml version="1.0" encoding="utf-8"?>
<!-- Generator: Adobe Illustrator 21.0.2, SVG Export Plug-In . SVG Version: 6.00 Build 0)  -->
<svg version="1.1" id="Capa_1" xmlns="http://www.w3.org/2000/svg" xmlns:xlink="http://www.w3.org/1999/xlink" x="0px" y="0px"
	 viewBox="0 0 672.8 610.6" style="enable-background:new 0 0 672.8 610.6;" xml:space="preserve">
<style type="text/css">
	.st0{fill:#007169;}
	.st1{fill:#F8F8F8;}
	.st2{fill:none;stroke:#007169;stroke-width:10;stroke-miterlimit:10;}
</style>
<g>
	<g>
		<g>
			<path class="st0" d="M-1077,48.7c-3.8-1.3-8.1-0.1-10.6,3.1l-439.1,553.6c-3.3,4.1-2.6,10.1,1.5,13.4c1.7,1.3,3.8,2.1,5.9,2.1
				h439.1c5.3,0,9.5-4.3,9.5-9.5V57.7C-1070.6,53.6-1073.2,50-1077,48.7z M-1089.7,143.6h-19.1v19.1h19.1v38.2h-19.1V220h19.1v38.2
				h-19.1v19.1h19.1v38.2h-19.1v19.1h19.1v38.2h-19.1v19.1h19.1V430h-19.1v19h19.1v38.2h-19.1v19.1h19.1v38.2h-19.1v19.1h19.1v38.2
				h-38.2v-19.1h-19.1v19.1h-38.2v-38.2h-19.1v38.2h-38.2v-19.1h-19.1v19.1h-38.2v-38.2h-19.1v38.2h-38.2v-19.1h-19.1v19.1h-38.2
				v-38.2h-19.1v38.2h-66.2l409.8-516.7v58.5H-1089.7z"/>
		</g>
	</g>
	<g>
		<g>
			<path class="st0" d="M-1153.4,267.9c-3.8-1.3-8.1-0.1-10.6,3.1l-204.7,258c-3.3,4.1-2.6,10.1,1.5,13.4c1.7,1.3,3.8,2.1,5.9,2.1
				h204.7c5.3,0,9.5-4.3,9.5-9.5V276.9C-1147,272.8-1149.6,269.2-1153.4,267.9z"/>
		</g>
	</g>
</g>
<g>
	<g>
		<g>
			<path class="st1" d="M543.7,0.6c-4.1-1.4-8.6-0.1-11.3,3.3L64.3,594.1c-3.5,4.4-2.8,10.8,1.6,14.3c1.8,1.4,4,2.2,6.3,2.2h468.1
				c5.6,0,10.2-4.6,10.2-10.2V10.2C550.5,5.8,547.8,2,543.7,0.6z M530.2,101.8h-20.4v20.4h20.4v40.7h-20.4v20.4h20.4V224h-20.4v20.4
				h20.4v40.7h-20.4v20.4h20.4V346h-20.4v20.4h20.4V407h-20.4v20.4h20.4v40.7h-20.4v20.4h20.4v40.7h-20.4v20.4h20.4v40.7h-40.7
				v-20.4h-20.4v20.4h-40.7v-40.7H408v40.7h-40.7v-20.4H347v20.4h-40.7v-40.7h-20.4v40.7h-40.7v-20.4h-20.4v20.4h-40.7v-40.7h-20.4
				v40.7H93.3L530.2,39.4V101.8z"/>
		</g>
	</g>
	<g>
		<g>
			<path class="st1" d="M442,260.7c-3.4-1.1-7-0.1-9.3,2.7L253.8,489c-2.9,3.6-2.3,8.9,1.3,11.7c1.5,1.1,3.3,1.8,5.2,1.8h178.9
				c4.6,0,8.4-3.8,8.4-8.4V268.6C447.6,265.1,445.4,262,442,260.7z"/>
		</g>
	</g>
</g>
<g>
	<path class="st0" d="M-2457.8,94.7v526.5h658.1V94.7H-2457.8z M-1818.3,593.4L-1818.3,593.4c0,3.3-1.2,6.2-3.5,8.7
		c-2.4,2.4-5.2,3.6-8.4,3.6h-598.6c-3.2,0-6-1.2-8.4-3.6c-2.4-2.4-3.6-5.3-3.6-8.7V125.6c0-3.3,1.2-6.2,3.6-8.7
		c2.4-2.4,5.2-3.6,8.4-3.6h598.7c3.2,0,6,1.2,8.4,3.6s3.5,5.3,3.5,8.7L-1818.3,593.4L-1818.3,593.4z"/>
	<path class="st2" d="M-2304.2,317.6c18.3,0,33.8-6.4,46.6-19.2c12.8-12.8,19.2-28.3,19.2-46.6s-6.4-33.8-19.2-46.6
		s-28.3-19.2-46.6-19.2s-33.8,6.4-46.6,19.2s-19.2,28.3-19.2,46.6s6.4,33.8,19.2,46.6S-2322.5,317.6-2304.2,317.6z"/>
	<polygon class="st0" points="-2205.5,416.3 -2260.3,361.5 -2370,471.2 -2370,537 -1887.4,537 -1887.4,383.4 -2030,240.8 	"/>
</g>
<g>
	<path class="st0" d="M0-613.8v538.2h672.8v-538.2H0z M653.7-104L653.7-104c0,3.4-1.2,6.4-3.6,8.9c-2.4,2.5-5.3,3.7-8.6,3.7h-612
		c-3.3,0-6.2-1.2-8.6-3.7s-3.6-5.4-3.6-8.9v-478.2c0-3.4,1.2-6.4,3.6-8.8c2.4-2.5,5.3-3.7,8.6-3.7h611.9c3.3,0,6.2,1.2,8.6,3.7
		c2.4,2.5,3.6,5.4,3.6,8.8V-104H653.7z"/>
	<path class="st2" d="M157-385.9c18.7,0,34.6-6.5,47.7-19.6c13.1-13.1,19.6-29,19.6-47.6c0-18.7-6.5-34.6-19.6-47.7
		c-13.1-13.1-29-19.6-47.7-19.6s-34.6,6.5-47.7,19.6c-13.1,13.1-19.6,29-19.6,47.7s6.5,34.6,19.6,47.6
		C122.4-392.4,138.3-385.9,157-385.9z"/>
	<polygon class="st0" points="257.9,-285 201.8,-341 89.7,-228.9 89.7,-161.6 583.1,-161.6 583.1,-318.6 437.3,-464.4 	"/>
</g>
<g>
	<g>
		<path class="st0" d="M-1849.6-419.9l36.9,361h-624.8l43.3-361h118.4h307.8H-1849.6 M-1832.5-435.1h-30.5h-113h-294h-113h-29.9
			l-3.7,29.7L-2458-77.6l-4.8,38.2h38.5h596.5h37.7l-4-37.5l-35.2-327.8L-1832.5-435.1L-1832.5-435.1z"/>
	</g>
	<g>
		<path class="st0" d="M-2001-546.2c-5.9-45.2-29.6-103.8-122.3-103.8c-92.8,0-116.4,58.6-122.3,103.8c-3.2,24.8-1.4,50,3.7,74.4
			c28.4,134.4,98.5,215,115,232.6c1.9,2.1,5.2,2.1,7.1,0c16.6-17.6,86.7-98.2,115-232.6C-1999.6-496.3-1997.8-521.4-2001-546.2z
			 M-2123.4-458.7c-39.6,0-71.7-32.1-71.7-71.7s32.1-71.7,71.7-71.7c39.6,0,71.7,32.1,71.7,71.7
			C-2051.6-490.8-2083.8-458.7-2123.4-458.7z"/>
	</g>
	<g>
		<g>
			<path class="st0" d="M-1926-315.7l-16.2-5c-0.1,0-12.7-3.9-30.7-6.7l-16.8-2.6l5.3-33.5l16.8,2.6c20.7,3.2,34.9,7.7,35.5,7.8
				l16.2,5L-1926-315.7z"/>
		</g>
		<g>
			<path class="st0" d="M-2238-121.4c-4.8,0-9.5-0.1-14.3-0.4l-16.9-0.9l1.7-33.9l16.9,0.9c4.2,0.2,8.4,0.3,12.6,0.3
				c18.6,0,34.9-2.3,48.4-6.7l16.1-5.3l10.6,32.2l-16.1,5.3C-2195.9-124.3-2215.8-121.4-2238-121.4z M-2125.7-165.2l-30.4-15
				l7.5-15.2c5.5-11.3,8.4-25.4,8.4-41.8c0-6.4,0.3-12.7,0.9-18.6l1.6-16.9l33.8,3.2l-1.6,16.9c-0.5,4.8-0.7,10-0.7,15.4
				c0,21.7-4,40.8-11.8,56.8L-2125.7-165.2z M-2096.7-292l-24.9-23.1l11.5-12.4c16.9-18.2,40.3-29.8,69.6-34.5l16.7-2.7l5.4,33.5
				l-16.7,2.7c-21.6,3.5-38.5,11.5-50.1,24L-2096.7-292z"/>
		</g>
		<g>
			<path class="st0" d="M-2306.4-128.4l-16.5-3.9c-20.3-4.8-33.7-9.4-34.2-9.5l-16-5.5l11-32.1l16,5.5c0.1,0,12.5,4.3,31,8.6
				l16.5,3.9L-2306.4-128.4z"/>
		</g>
	</g>
</g>
<g>
	<g>
		<path class="st0" d="M-209.3-419.9l36.9,361h-624.8l43.3-361h118.4h307.8H-209.3 M-192.2-435.1h-30.5h-113h-293.9h-113h-29.9
			l-3.7,29.7l-41.3,327.8l-4.8,38.2h38.5h596.5h37.7l-4-37.5L-189-404.8L-192.2-435.1L-192.2-435.1z"/>
	</g>
	<g>
		<path class="st0" d="M-360.7-546.2C-366.6-591.4-390.3-650-483-650c-92.8,0-116.4,58.6-122.3,103.8c-3.2,24.8-1.4,50,3.7,74.4
			c28.4,134.4,98.5,215,115,232.6c1.9,2.1,5.2,2.1,7.1,0c16.6-17.6,86.7-98.2,115-232.6C-359.3-496.3-357.5-521.4-360.7-546.2z
			 M-483.1-458.7c-39.6,0-71.7-32.1-71.7-71.7s32.1-71.7,71.7-71.7s71.7,32.1,71.7,71.7C-411.3-490.8-443.5-458.7-483.1-458.7z"/>
	</g>
	<g>
		<g>
			<path class="st0" d="M-285.7-315.7l-16.2-5c-0.1,0-12.7-3.9-30.7-6.7l-16.8-2.6l5.3-33.5l16.8,2.6c20.7,3.2,34.9,7.7,35.5,7.8
				l16.2,5L-285.7-315.7z"/>
		</g>
		<g>
			<path class="st0" d="M-597.7-121.4c-4.8,0-9.5-0.1-14.3-0.4l-16.9-0.9l1.7-33.9l16.9,0.9c4.2,0.2,8.4,0.3,12.6,0.3
				c18.6,0,34.9-2.3,48.4-6.7l16.1-5.3l10.6,32.2l-16.1,5.3C-555.6-124.3-575.5-121.4-597.7-121.4z M-485.4-165.2l-30.4-15l7.5-15.2
				c5.5-11.3,8.4-25.4,8.4-41.8c0-6.4,0.3-12.7,0.9-18.6l1.6-16.9l33.8,3.2l-1.6,16.9c-0.5,4.8-0.7,10-0.7,15.4
				c0,21.7-4,40.8-11.8,56.8L-485.4-165.2z M-456.4-292l-24.9-23.1l11.5-12.4c16.9-18.2,40.3-29.8,69.6-34.5l16.7-2.7l5.4,33.5
				l-16.7,2.7c-21.6,3.5-38.5,11.5-50.1,24L-456.4-292z"/>
		</g>
		<g>
			<path class="st0" d="M-666.1-128.4l-16.5-3.9c-20.3-4.8-33.7-9.4-34.2-9.5l-16-5.5l11-32.1l16,5.5c0.1,0,12.5,4.3,31,8.6
				l16.5,3.9L-666.1-128.4z"/>
		</g>
	</g>
</g>
<g>
	<g>
		<polygon class="st0" points="-1179.6,-607.1 -1179.6,-564.2 -1254.6,-564.2 -1254.6,-607.1 -1511.9,-607.1 -1511.9,-564.2 
			-1586.9,-564.2 -1586.9,-607.1 -1678,-607.1 -1678,-489.2 -1088.5,-489.2 -1088.5,-607.1 		"/>
	</g>
	<g>
		<path class="st1" d="M-1088.5-22.9H-1678v-471.7h589.6L-1088.5-22.9L-1088.5-22.9z M-1667.3-33.6h568.1v-450.2h-568.1V-33.6z"/>
	</g>
	<g>
		<path class="st0" d="M-1276.1-414.2h-21.4h-75h-21.4h-75h-21.4h-96.5v96.5v21.4v75v21.4v96.5h96.5h21.4h75h21.4h75h21.4h96.5
			v-96.5v-21.4v-75v-21.4v-96.5H-1276.1z M-1372.5-392.7h75v75h-75V-392.7z M-1297.5-221.2h-75v-75h75V-221.2z M-1469-296.3h75v75
			h-75V-296.3z M-1469-392.7h75v75h-75V-392.7z M-1565.5-392.7h75v75h-75V-392.7z M-1565.5-296.3h75v75h-75V-296.3z M-1490.5-124.7
			h-75v-75h75V-124.7z M-1394-124.7h-75v-75h75V-124.7z M-1297.5-124.7h-75v-75h75V-124.7z M-1201-124.7h-75v-75h75V-124.7z
			 M-1201-221.2h-75v-75h75V-221.2z M-1276.1-317.7v-75h75v75H-1276.1z"/>
	</g>
	<g>
		<rect x="-1586.9" y="-650" class="st1" width="75" height="85.8"/>
	</g>
	<g>
		<rect x="-1254.6" y="-650" class="st1" width="75" height="85.8"/>
	</g>
	<g>
		<rect x="-1372.5" y="-296.3" class="st1" width="75" height="75"/>
	</g>
	<g>
		<rect x="-1565.5" y="-392.7" class="st1" width="75" height="75"/>
	</g>
</g>
<g>
	<g>
		<polygon class="st0" points="-293.7,49.6 -293.7,90.1 -364.6,90.1 -364.6,49.6 -607.6,49.6 -607.6,90.1 -678.5,90.1 -678.5,49.6 
			-764.6,49.6 -764.6,161 -207.7,161 -207.7,49.6 		"/>
	</g>
	<g>
		<path class="st1" d="M-207.6,601.5h-557V155.9h557L-207.6,601.5L-207.6,601.5z M-754.4,591.4h536.7V166.1h-536.7V591.4z"/>
	</g>
	<g>
		<path class="st0" d="M-384.8,231.9h-20.3H-476h-20.3h-70.9h-20.3h-91.1V323v20.3v70.9v20.3v91.1h91.1h20.3h70.9h20.3h70.9h20.3
			h91.1v-91.1v-20.3v-70.9V323v-91.1H-384.8z M-476,252.1h70.9V323H-476V252.1z M-405.1,414.1H-476v-70.9h70.9V414.1z M-567.1,343.3
			h70.9v70.9h-70.9V343.3z M-567.1,252.1h70.9V323h-70.9V252.1z M-658.2,252.1h70.9V323h-70.9V252.1z M-658.2,343.3h70.9v70.9h-70.9
			V343.3z M-587.4,505.3h-70.9v-70.9h70.9V505.3z M-496.2,505.3h-70.9v-70.9h70.9L-496.2,505.3L-496.2,505.3z M-405.1,505.3H-476
			v-70.9h70.9V505.3z M-313.9,505.3h-70.9v-70.9h70.9V505.3z M-313.9,414.1h-70.9v-70.9h70.9V414.1z M-384.8,323v-70.9h70.9V323
			H-384.8z"/>
	</g>
	<g>
		<rect x="-678.5" y="9.1" class="st1" width="70.9" height="81"/>
	</g>
	<g>
		<rect x="-364.6" y="9.1" class="st1" width="70.9" height="81"/>
	</g>
	<g>
		<rect x="-476" y="343.3" class="st1" width="70.9" height="70.9"/>
	</g>
	<g>
		<rect x="-658.2" y="252.1" class="st1" width="70.9" height="70.9"/>
	</g>
</g>
</svg>
