<?xml version="1.0" encoding="utf-8"?>
<!-- Generator: Adobe Illustrator 21.0.2, SVG Export Plug-In . SVG Version: 6.00 Build 0)  -->
<svg version="1.1" id="Layer_3" xmlns="http://www.w3.org/2000/svg" xmlns:xlink="http://www.w3.org/1999/xlink" x="0px" y="0px"
	 viewBox="0 0 944.3 335" style="enable-background:new 0 0 944.3 335;" xml:space="preserve">
<style type="text/css">
	.st0{fill:#EDEDED;}
</style>
<g>
	<g>
		<path class="st0" d="M164.5,4.2l19.7,0l0.3,146.6l-19.7,0.1L164.5,4.2z"/>
		<path class="st0" d="M237.2,135.7L320,22.4l-81.7,0.2l0-18.5l106.5-0.3l0,15.5l-82.6,112.8l82.6-0.2l0,18.5l-107.7,0.3
			L237.2,135.7z"/>
		<path class="st0" d="M471.4,153.7c-42.9,0.1-73.7-29.8-73.9-76.3C397.4,33.5,427.9,0.1,471,0c42.9-0.1,73.7,29.9,73.9,76.1
			C545,120,514.6,153.6,471.4,153.7z M470.6,17.8c-31.2,0.1-53,23.6-52.9,58.5c0.1,36.4,22,59.5,54.1,59.5
			c31-0.1,53.2-23.8,53.1-58.8C524.9,40.9,502.5,17.8,470.6,17.8z"/>
		<path class="st0" d="M685.5,147.5l-19.9,0.1l-45.1-120l-1.3,122.2l-19.5,0.1l4.6-146.7l26.5-0.1l45.3,120.5L720.6,2.9l26-0.1
			l5,146.6l-20.2,0l-1.7-122L685.5,147.5z"/>
		<path class="st0" d="M27.5,22.9l21.6,0c22.5-0.1,36.4,7.9,36.4,25.5c0,17.8-14.5,27.2-33.7,28l-8.1,0.3l45.6,74.5l23,0L72.5,89.6
			c20.4-6.6,33-20,33-42.3C105.4,21,87.1,4.4,51.4,4.5L0,4.6l11,18.3L27.5,22.9z"/>
		<path class="st0" d="M804.3,149.4l52-135.2c2.2-6.4,9.3-11.6,15.7-11.6c6.4,0,13.5,5.2,15.7,11.5l52,135l-20.9,0L871.9,23.7
			l-46.5,125.6L804.3,149.4z"/>
	</g>
	<g>
		<path class="st0" d="M307.8,331.1l-19.7,0.1l-0.3-127.9l-51.4,0.1l0-18.8l122.5-0.3l0,18.8l-51.4,0.1L307.8,331.1z"/>
		<path class="st0" d="M469,334.3c-36.8,0.1-57.3-22.9-57.4-57.8l-0.2-92.2l19.7-0.1l0.2,89.2c0.1,26.5,12.5,42.2,38.8,42.2
			c22.8-0.1,36.8-13.5,36.7-40.9l-0.2-90.6l19.7-0.1l0.2,90.1C526.7,310.9,507.5,334.2,469,334.3z"/>
		<path class="st0" d="M733.4,183.5l19.7,0l0.3,146.6l-19.7,0L733.4,183.5z"/>
		<path class="st0" d="M164.8,292.5c0-15-11.1-20.6-35.3-26.9c-20.9-5.6-43.9-14.4-44-42.8c-0.1-24.6,19.8-41.3,48.9-41.4
			c16.9,0,32.4,4.1,46.2,12.8l-7,17.4c-11.3-7.5-25.8-12.1-39-12.1c-21.3,0.1-29.8,9.7-29.7,21.9c0,14.8,12.5,19.9,35.7,26.2
			c21.4,5.6,43.2,15.9,43.3,43.5c0.1,25.3-20.8,43.9-51.5,44c-17.1,0-35-4.6-49.1-13.7l6.5-18.1c12.5,8.2,25.8,14,43,14
			C151.7,317.2,164.8,307.3,164.8,292.5z"/>
		<path class="st0" d="M603.2,183.8l-24.2,0.1l0,18.5l23.2,0c37.3-0.1,58.7,18.6,58.8,55c0.1,35.9-22.6,54.5-57.6,54.6l-24.2,0.1
			l0,18.5l23.2-0.1c50.5-0.1,78.5-29.3,78.4-74.6C680.9,212.2,651.7,183.7,603.2,183.8z"/>
		<path class="st0" d="M874.3,329.6c-40.9,0.1-70.3-28.5-70.4-72.7c-0.1-41.8,28.9-73.6,70-73.7c40.9-0.1,70.3,28.5,70.4,72.5
			C944.4,297.5,915.4,329.5,874.3,329.6z M873.5,200.1c-29.7,0.1-50.5,22.5-50.4,55.8c0.1,34.7,20.9,56.7,51.6,56.7
			c29.5-0.1,50.7-22.7,50.6-56C925.3,222.1,904,200.1,873.5,200.1z"/>
	</g>
</g>
</svg>
