<?xml version="1.0" standalone="no"?>
<!DOCTYPE svg PUBLIC "-//W3C//DTD SVG 20010904//EN"
 "http://www.w3.org/TR/2001/REC-SVG-20010904/DTD/svg10.dtd">
<svg version="1.0" xmlns="http://www.w3.org/2000/svg"
 width="2482.000000pt" height="1755.000000pt" viewBox="0 0 2482.000000 1755.000000"
 preserveAspectRatio="xMidYMid meet">
<metadata>
Created by potrace 1.16, written by Peter Selinger 2001-2019
</metadata>
<g transform="translate(0.000000,1755.000000) scale(0.100000,-0.100000)"
fill="#000000" stroke="none">
<path d="M9253 13602 c-402 -301 -1865 -1393 -3250 -2427 l-2519 -1880 130
-175 c71 -96 135 -181 142 -189 15 -17 -45 -59 589 414 1578 1179 3487 2604
3796 2835 196 146 693 517 1105 824 412 308 754 559 759 559 6 0 383 -251 840
-559 456 -307 1003 -676 1215 -818 741 -498 9309 -6262 9733 -6548 236 -158
435 -294 443 -302 12 -12 14 -119 14 -695 l0 -681 238 0 237 0 -3 520 c-2 369
1 520 9 520 10 0 170 -107 891 -593 169 -114 309 -207 312 -207 3 0 38 48 77
108 40 59 76 108 81 110 4 2 8 8 8 13 0 12 78 130 95 144 12 10 -96 85 -625
441 -19 13 -163 110 -320 215 -1115 748 -10447 7027 -10675 7182 -291 197
-2584 1737 -2587 1737 -2 -1 -332 -247 -735 -548z"/>
<path d="M9655 12160 c-214 -158 -403 -299 -420 -312 -26 -21 -1022 -765
-4320 -3228 -319 -238 -584 -436 -588 -440 -8 -7 262 -379 275 -380 8 0 265
190 800 592 197 147 360 268 363 268 3 0 5 -1057 5 -2350 l0 -2350 2140 0
2140 0 0 235 0 235 -1900 0 -1900 0 1 2298 0 2297 27 21 c15 11 790 590 1722
1286 932 695 1776 1325 1875 1399 l180 135 -5 291 -5 292 -390 -289z"/>
<path d="M14260 6775 l0 -2815 240 0 240 0 0 2370 0 2370 43 -29 c23 -16 1307
-880 2853 -1919 1546 -1040 2946 -1981 3110 -2092 165 -111 465 -314 668 -451
203 -137 371 -247 373 -246 3 3 4 569 3 1190 l0 147 -237 0 -238 0 2 -226 c2
-178 0 -224 -10 -218 -21 13 -1970 1324 -4667 3139 -426 287 -932 627 -1125
757 -192 129 -552 371 -798 537 -247 165 -450 301 -453 301 -2 0 -4 -1267 -4
-2815z"/>
</g>
</svg>
