<?xml version="1.0" encoding="utf-8"?>
<!-- Generator: Adobe Illustrator 21.0.2, SVG Export Plug-In . SVG Version: 6.00 Build 0)  -->
<svg version="1.1" id="Layer_1" xmlns="http://www.w3.org/2000/svg" xmlns:xlink="http://www.w3.org/1999/xlink" x="0px" y="0px"
	 viewBox="0 0 1920 1271.7" style="enable-background:new 0 0 1920 1271.7;" xml:space="preserve">
<style type="text/css">
	.st0{display:none;}
	.st1{fill:none;stroke:#000000;stroke-width:1.000000e-02;stroke-miterlimit:10;}
	.st2{display:inline;}
	.st3{fill:#FFFFFF;}
	.st4{fill:#FEFEFE;}
	.st5{fill:#FDFDFD;}
	.st6{fill:#FCFCFC;}
	.st7{fill:#FBFBFB;}
	.st8{fill:#FAFAFA;}
	.st9{fill:#F9F9F9;}
	.st10{fill:#F8F8F8;}
	.st11{fill:#F7F7F7;}
	.st12{fill:#F6F6F6;}
	.st13{fill:#F5F5F5;}
	.st14{fill:#F4F4F4;}
	.st15{fill:#F3F3F3;}
	.st16{fill:#F2F2F2;}
	.st17{fill:#F1F1F1;}
	.st18{fill:#F0F0F0;}
	.st19{fill:#EFEFEF;}
	.st20{fill:#EEEEEE;}
	.st21{fill:#EDEDED;}
	.st22{fill:#ECECEC;}
	.st23{fill:#EBEBEB;}
	.st24{fill:#EAEAEA;}
	.st25{fill:#E9E9E9;}
	.st26{fill:#E8E8E8;}
	.st27{fill:#E7E7E7;}
	.st28{fill:#E6E6E6;}
	.st29{fill:#E5E5E5;}
	.st30{fill:#E4E4E4;}
	.st31{fill:#E3E3E3;}
	.st32{fill:#E2E2E2;}
	.st33{fill:#E1E1E1;}
	.st34{fill:#E0E0E0;}
	.st35{fill:#DFDFDF;}
	.st36{fill:#DEDEDE;}
	.st37{fill:#DDDDDD;}
	.st38{fill:#DCDCDC;}
	.st39{fill:#DBDBDB;}
	.st40{fill:#DADADA;}
	.st41{fill:#D9D9D9;}
	.st42{fill:#D8D8D8;}
	.st43{fill:#D7D7D7;}
	.st44{fill:#D6D6D6;}
	.st45{fill:#D5D5D5;}
	.st46{fill:#D4D4D4;}
	.st47{fill:#D3D3D3;}
	.st48{fill:#D2D2D2;}
	.st49{fill:#D1D1D1;}
	.st50{fill:#D0D0D0;}
	.st51{fill:#CFCFCF;}
	.st52{fill:#CECECE;}
	.st53{fill:#CDCDCD;}
	.st54{fill:#CCCCCC;}
	.st55{fill:#CBCBCB;}
	.st56{fill:#CACACA;}
	.st57{fill:#C9C9C9;}
	.st58{fill:#C8C8C8;}
	.st59{fill:#C7C7C7;}
	.st60{fill:#C6C6C6;}
	.st61{fill:#C5C5C5;}
	.st62{fill:#C4C4C4;}
	.st63{fill:#C3C3C3;}
	.st64{fill:#C2C2C2;}
	.st65{fill:#C1C1C1;}
	.st66{fill:#C0C0C0;}
	.st67{fill:#BFBFBF;}
	.st68{fill:#BEBEBE;}
	.st69{fill:#BDBDBD;}
	.st70{fill:#BCBCBC;}
	.st71{fill:#BBBBBB;}
	.st72{fill:#BABABA;}
	.st73{fill:#B9B9B9;}
	.st74{fill:#B8B8B8;}
	.st75{fill:#B7B7B7;}
	.st76{fill:#B6B6B6;}
	.st77{fill:#B5B5B5;}
	.st78{fill:#B4B4B4;}
	.st79{fill:#B3B3B3;}
	.st80{fill:#B2B2B2;}
	.st81{fill:#B1B1B1;}
	.st82{fill:#B0B0B0;}
	.st83{fill:#AFAFAF;}
	.st84{fill:#AEAEAE;}
	.st85{fill:#ADADAD;}
	.st86{fill:#ACACAC;}
	.st87{fill:#ABABAB;}
	.st88{fill:#AAAAAA;}
	.st89{fill:#A9A9A9;}
	.st90{fill:#A8A8A8;}
	.st91{fill:#A7A7A7;}
	.st92{fill:#A6A6A6;}
	.st93{fill:#A5A5A5;}
	.st94{fill:#A4A4A4;}
	.st95{fill:#A3A3A3;}
	.st96{fill:#A2A2A2;}
	.st97{fill:#A1A1A1;}
	.st98{fill:#A0A0A0;}
	.st99{fill:#9F9F9F;}
	.st100{fill:#9E9E9E;}
	.st101{fill:#9D9D9D;}
	.st102{fill:#9C9C9C;}
	.st103{fill:#9B9B9B;}
	.st104{fill:#9A9A9A;}
	.st105{fill:#999999;}
	.st106{fill:#989898;}
	.st107{fill:#979797;}
	.st108{fill:#969696;}
	.st109{fill:#959595;}
	.st110{fill:#949494;}
	.st111{fill:#939393;}
	.st112{fill:#929292;}
	.st113{fill:#919191;}
	.st114{fill:#909090;}
	.st115{fill:#8F8F8F;}
	.st116{fill:#8E8E8E;}
	.st117{fill:#8D8D8D;}
	.st118{fill:#8C8C8C;}
	.st119{fill:#8B8B8B;}
	.st120{fill:#8A8A8A;}
	.st121{fill:#898989;}
	.st122{fill:#888888;}
	.st123{fill:#878787;}
	.st124{fill:#868686;}
	.st125{fill:#858585;}
	.st126{fill:#848484;}
	.st127{fill:#838383;}
	.st128{fill:#828282;}
	.st129{fill:#818181;}
	.st130{fill:#808080;}
	.st131{fill:#7F7F7F;}
	.st132{fill:#7E7E7E;}
	.st133{fill:#7D7D7D;}
	.st134{fill:#7C7C7C;}
	.st135{fill:#7B7B7B;}
	.st136{fill:#7A7A7A;}
	.st137{fill:#797979;}
	.st138{fill:#787878;}
	.st139{fill:#777777;}
	.st140{fill:#767676;}
	.st141{fill:#757575;}
	.st142{fill:#747474;}
	.st143{fill:#737373;}
	.st144{fill:#727272;}
	.st145{fill:#717171;}
	.st146{fill:#707070;}
	.st147{fill:#6F6F6F;}
	.st148{fill:#6E6E6E;}
	.st149{fill:#6D6D6D;}
	.st150{fill:#6C6C6C;}
	.st151{fill:#6B6B6B;}
	.st152{fill:#6A6A6A;}
	.st153{fill:#696969;}
	.st154{fill:#686868;}
	.st155{fill:#676767;}
	.st156{fill:#666666;}
	.st157{fill:#656565;}
	.st158{fill:#646464;}
</style>
<g id="Layer_1_1_" class="st0">
	
		<image style="display:inline;overflow:visible;enable-background:new    ;" width="4928" height="3264" xlink:href="6F1917C05D0F4640.jpg"  transform="matrix(1 0 0 1 -1504 -996.1559)">
	</image>
</g>
<g id="Layer_2">
	<g>
		<polygon points="190.7,1273.5 89.9,827 122.5,816.8 171.4,1020.6 1097.2,737.5 752.6,3.7 758.9,0.7 1107,741.8 166.4,1029.4 
			117.4,825.8 98.2,831.7 197.5,1271.9 		"/>
	</g>
	<g>
		<polygon points="221.8,1273.5 183.3,1110.7 186.4,1109.7 1142.2,814.2 1341.5,1229.6 1335.2,1232.6 1138.5,822.7 191.7,1115.5 
			228.7,1271.9 		"/>
	</g>
	<g>
		<rect x="1124.9" y="-66.9" transform="matrix(0.8966 -0.4429 0.4429 0.8966 -149.767 561.9736)" width="7" height="1337.2"/>
	</g>
	<g>
		<path d="M407.1,1174.2c-2,0-4-0.4-5.8-1.2c-3.2-1.4-5.4-3.9-6.3-7c-1.8-6.3,2.7-13.1,10.1-15.3c7.4-2.1,14.9,1.2,16.7,7.5
			c0.9,3.1,0.3,6.4-1.6,9.3c-1.9,2.8-4.9,4.9-8.4,6C410.1,1174,408.6,1174.2,407.1,1174.2z M409.5,1152.5c-1.2,0-2.6,0.2-3.9,0.5
			c-6.1,1.8-9.9,7.3-8.5,12.4c0.7,2.4,2.5,4.4,5.1,5.5c2.6,1.2,5.7,1.3,8.8,0.4c3-0.9,5.6-2.6,7.2-5.1c1.6-2.3,2-4.9,1.3-7.3
			C418.3,1155,414.2,1152.5,409.5,1152.5z"/>
	</g>
	<g>
		<rect x="407.6" y="1151.4" transform="matrix(0.9433 -0.3319 0.3319 0.9433 -362.5131 201.5532)" width="2.3" height="21.3"/>
	</g>
	<g>
		<rect x="395.2" y="1161" transform="matrix(0.929 -0.3701 0.3701 0.929 -401.148 233.4387)" width="25.3" height="2.3"/>
	</g>
	<g>
		<path d="M1020.4,915.2c-3.6,0-6.9-2-7.7-5.2c-0.6-1.9-0.2-4,1.1-5.9c1.2-1.8,3.1-3.2,5.4-3.8c2.3-0.7,4.6-0.5,6.6,0.4
			c2,0.9,3.5,2.5,4,4.4l0,0c0.6,1.9,0.2,4-1.1,5.9c-1.2,1.8-3.1,3.2-5.4,3.8C1022.3,915,1021.4,915.2,1020.4,915.2z M1021.9,901.4
			c-0.8,0-1.6,0.1-2.5,0.4c-1.9,0.5-3.5,1.7-4.5,3.2c-1,1.4-1.3,3.1-0.9,4.6c0.9,3.2,4.8,4.8,8.7,3.7c1.9-0.5,3.5-1.7,4.5-3.2
			c1-1.4,1.3-3.1,0.9-4.6l0,0c-0.4-1.5-1.6-2.7-3.2-3.4C1024,901.6,1023,901.4,1021.9,901.4z"/>
	</g>
	<g>
		<rect x="1020.7" y="900.7" transform="matrix(0.9433 -0.3319 0.3319 0.9433 -243.269 390.469)" width="1.6" height="13.5"/>
	</g>
	<g>
		<rect x="1012.8" y="906.7" transform="matrix(0.929 -0.37 0.37 0.929 -263.3338 442.1077)" width="16" height="1.6"/>
	</g>
	<g>
		<polygon points="812.1,1006.2 811.4,1004 886.8,978.9 858.5,906.8 780.1,931 786.4,947.5 784.2,948.4 777,929.6 859.9,903.9 
			889.9,980.3 		"/>
	</g>
	<g>
		<polygon points="587,1076 561.8,998.2 564,997.5 588.5,1073 649.2,1054.2 649.9,1056.5 		"/>
	</g>
	<g>
		<rect x="780.7" y="929.7" transform="matrix(0.9345 -0.3559 0.3559 0.9345 -283.0479 339.765)" width="2.3" height="18.9"/>
	</g>
	<g>
		<polygon points="838,1113.5 837.3,1111.3 845.7,1108.6 811.7,1020.5 813.9,1019.6 848.8,1110.1 		"/>
	</g>
	<g>
		<polygon points="622,1183.1 586.3,1073.7 649.2,1054.2 649.9,1056.5 589.2,1075.3 623.5,1180.1 702.8,1154.6 703.5,1156.8 		"/>
	</g>
	<g>
		<path d="M889.6,1220.4l-0.4-1l-43.6-110.8l85.9-27.4l44.5,111.2L889.6,1220.4z M848.8,1110.1l42.2,107.5l82-26.7l-42.7-106.8
			L848.8,1110.1z"/>
	</g>
	<g>
		<path d="M667.1,982.3c-0.2-0.5-3.7-10.5-5.5-15.8l2.2-0.8c0.2,0.6,5.3,15.2,5.5,15.8L667.1,982.3z"/>
	</g>
	<g>
		<rect x="908.4" y="975.3" transform="matrix(0.9242 -0.3818 0.3818 0.9242 -324.7694 425.4213)" width="2.3" height="111.5"/>
	</g>
	<g>
		<path d="M657.5,1068.4c-2.6,0-4.2-0.7-4.6-1.8c-0.3-0.8-20-52.4-20-52.4l0-0.2c0-0.2-1.1-5.2-0.5-10.7c0.8-7.6,4.4-12.7,10.4-14.5
			c3-0.9,10.6-3.3,21.2-6.7c37.6-11.8,107.5-33.7,114.3-35.4c9.4-2.3,18.3,4.6,19.3,8.1c0.2,0.5,0.8,2.6,1.8,5.8
			c4.1,13.3,16.6,53.8,17.1,55.1c0.3,0.6,0.2,1.4-0.1,2.1c-0.7,1.4-2.3,2.6-4.5,3.3c-0.4,0.1-2.7,0.9-6.5,2
			c-90.1,28.3-137.8,43.1-141.4,44.1C661.4,1068.1,659.2,1068.4,657.5,1068.4z M655.1,1065.7c0.5,0.3,3,0.9,8.3-0.5
			c2.5-0.7,29.2-9,141.4-44.1c3.8-1.2,6.1-1.9,6.5-2c2.5-0.8,3.2-2.1,3.2-2.3c-0.3-0.7-5.4-17.2-17.2-55.3c-1-3.1-1.6-5.2-1.8-5.8
			c-0.7-2.5-8.5-8.4-16.6-6.5c-6.7,1.6-76.6,23.5-114.1,35.3c-10.6,3.3-18.2,5.7-21.2,6.7l-0.4-1.1l0.4,1.1
			c-11.9,3.7-8.6,21.1-8.3,22.4C636,1015.8,653.9,1062.6,655.1,1065.7z M655,1065.6L655,1065.6z"/>
	</g>
	<g>
		<path d="M778.4,1206.1c-13,0-26.7-4.4-40.1-13c-20-12.9-37.2-34.3-47.2-58.7c-9.7-23.9-11.2-51.5-4-76l2.3,0.7
			c-7,24-5.5,51.1,4,74.5c9.8,24,26.7,45,46.3,57.6c13,8.4,26.4,12.7,38.9,12.7c6.8,0,13.3-1.2,19.5-3.7
			c17.6-7.2,30.3-23.9,35.7-47.2c5.3-22.8,2.8-49.7-7-73.6c-10.5-25.7-27.8-41.1-40.5-49.5l1.3-1.9c13,8.6,30.7,24.3,41.4,50.6
			c9.9,24.4,12.5,51.8,7.1,75c-2.7,11.6-7.2,21.7-13.4,30c-6.5,8.7-14.4,15.1-23.7,18.8C792.3,1204.8,785.5,1206.1,778.4,1206.1z"/>
	</g>
	<g>
		<rect x="683.9" y="1046.3" transform="matrix(0.9539 -0.3 0.3 0.9539 -280.5634 270.0078)" width="110.2" height="4.7"/>
	</g>
	<g>
		<path d="M1288.6,1247.8c-0.8-33.8-10.1-63.8-17.8-83c-8.3-20.8-16.6-33.8-16.7-34l2-1.2c0.1,0.1,8.4,13.3,16.9,34.3
			c7.7,19.4,17.2,49.7,18,83.8L1288.6,1247.8z"/>
	</g>
	<g>
		<polygon points="492.4,915.7 423.8,699.1 122.4,784.8 130.9,818.2 128.6,818.7 119.6,783.2 120.7,782.9 425.4,696.2 425.7,697.3 
			494.6,915 		"/>
	</g>
	<g>
		<rect x="118.9" y="754.9" transform="matrix(0.9598 -0.2806 0.2806 0.9598 -201.0177 108.1413)" width="316.6" height="2.3"/>
	</g>
	<g>
		<g>
			<rect x="417.8" y="731.6" transform="matrix(0.9608 -0.2774 0.2774 0.9608 -186.5264 147.0853)" width="17.5" height="2.3"/>
		</g>
		<g>
			<path d="M168.4,808.6l-0.7-2.3l31.3-9l0.7,2.3L168.4,808.6z M230.9,790.5l-0.7-2.3l31.3-9l0.7,2.3L230.9,790.5z M293.4,772.4
				l-0.7-2.3l31.3-9l0.7,2.3L293.4,772.4z M355.9,754.4l-0.7-2.3l31.3-9l0.7,2.3L355.9,754.4z"/>
		</g>
		<g>
			<rect x="119.6" y="817.7" transform="matrix(0.9608 -0.2774 0.2774 0.9608 -222.1152 67.7461)" width="17.5" height="2.3"/>
		</g>
	</g>
	<g>
		<polygon points="435.3,731.5 434.6,729.2 803.1,621.5 581.8,76.2 771.6,35.3 772.1,37.5 585,77.8 806.2,623 		"/>
	</g>
	<g>
		<rect x="473.9" y="722.8" transform="matrix(0.9514 -0.3078 0.3078 0.9514 -230.8072 186.2755)" width="2.3" height="203.9"/>
	</g>
	<g>
		<path d="M773.4,274.2l-14-32.1l2.1-0.9l14,32.1L773.4,274.2z M745.4,210l-14-32.1l2.1-0.9l14,32.1L745.4,210z M717.5,145.7
			l-14-32.1l2.1-0.9l14,32.1L717.5,145.7z M689.5,81.5l-10.8-24.8l2.1-0.9l10.8,24.8L689.5,81.5z"/>
	</g>
	<g>
		<path d="M718.9,751.5l-0.7-2.3l33.6-10l0.7,2.3L718.9,751.5z M786.1,731.6l-0.7-2.3l33.6-10l0.7,2.3L786.1,731.6z M853.2,711.7
			l-0.7-2.3l33.6-10l0.7,2.3L853.2,711.7z M920.4,691.8l-0.7-2.3l30.4-9l-0.2-0.6l2.1-0.9l1.3,3L920.4,691.8z M936,647.8l-14-32.1
			l2.1-0.9l14,32.1L936,647.8z M908,583.6l-14-32.1l2.1-0.9l14,32.1L908,583.6z M880.1,519.3l-14-32.1l2.1-0.9l14,32.1L880.1,519.3z
			 M852.1,455.1l-14-32.1l2.1-0.9l14,32.1L852.1,455.1z M824.1,390.9l-14-32.1l2.1-0.9l14,32.1L824.1,390.9z M796.2,326.6l-0.4-1
			l2.1-0.9l0.4,1L796.2,326.6z"/>
	</g>
	<g>
		<path d="M475.4,823.7l-0.7-2.3l33.6-10l0.7,2.3L475.4,823.7z M542.6,803.8l-0.7-2.3l33.6-10l0.7,2.3L542.6,803.8z M609.8,783.9
			l-0.7-2.3l10.4-3.1l0.7,2.3L609.8,783.9z"/>
	</g>
	<g>
		<path d="M782.2,222.5l-0.5-2.3c22.3-5.5,65-16,66.5-16.5l0.7,2.2C847.1,206.6,784.8,221.8,782.2,222.5z"/>
	</g>
	<g>
		<path d="M851.7,372.4l-0.6-2.3c23.2-6.1,67.5-17.8,68.9-18.3l0.7,2.2C918.9,354.6,854.4,371.7,851.7,372.4z"/>
	</g>
	<g>
		<polygon points="704.7,412.3 642,255.4 707.5,238.2 708.1,240.4 645.1,257 706.1,409.5 771.7,392.3 772.3,394.6 		"/>
	</g>
	<g>
		<rect x="783.5" y="238.1" transform="matrix(0.5612 -0.8277 0.8277 0.5612 164.0147 787.9037)" width="83.2" height="2.3"/>
	</g>
	<g>
		<rect x="702.2" y="219.7" transform="matrix(0.3475 -0.9377 0.9377 0.3475 206.0318 835.5902)" width="2.3" height="100.1"/>
	</g>
	<g>
		<rect x="697.4" y="368.6" transform="matrix(0.5553 -0.8316 0.8316 0.5553 22.1138 780.8304)" width="87.5" height="2.3"/>
	</g>
	<g>
		<rect x="869.6" y="284.4" transform="matrix(0.3599 -0.933 0.933 0.3599 244.5907 1027.0179)" width="2.3" height="101.7"/>
	</g>
	<g>
		<polygon points="799.7,584.5 730.6,412.9 923.7,359.4 924.4,361.6 733.7,414.4 801.1,581.7 1001.2,524.4 1001.9,526.6 		"/>
	</g>
	<g>
		<path d="M807.8,568.9l-0.4-1l-59.9-148.9l146-41.4l66.1,148L807.8,568.9z M750.6,420.6l58.5,145.5l147.2-41.9l-64.2-143.7
			L750.6,420.6z"/>
	</g>
	<g>
		<path d="M939.5,515.6c0.3,0.8,3.6,7.5,3.6,7.5l36.1-14.8L939.5,515.6z"/>
	</g>
	<g>
		<path d="M1118.7,291.8c-0.1,0.8,0,5.3,0,5.3l25.5-2.4L1118.7,291.8z"/>
	</g>
	<g>
		<path d="M150,751.1c-0.3-0.8-2.6-11.3-2.6-11.3l-51.3,19.8L150,751.1z"/>
	</g>
	<g>
		<path d="M567.4,781.1c-16.3,0-30.2-9.8-32.6-24c-1.3-7.8,1.1-15.8,6.7-22.4c5.6-6.6,13.7-11,22.9-12.6c9.2-1.6,18.3,0,25.7,4.4
			c7.5,4.4,12.3,11.2,13.7,19l0,0c1.3,7.8-1.1,15.8-6.7,22.4c-5.6,6.6-13.7,11-22.9,12.6C571.9,780.9,569.6,781.1,567.4,781.1z
			 M571.3,723.9c-2.1,0-4.3,0.2-6.5,0.5c-8.6,1.4-16.3,5.6-21.5,11.8c-5.2,6.1-7.4,13.4-6.2,20.5c2.5,14.8,19,24.4,36.7,21.5
			c8.6-1.4,16.3-5.6,21.5-11.8c5.2-6.1,7.4-13.4,6.2-20.5l0,0c-1.2-7.2-5.6-13.3-12.5-17.4C583.8,725.5,577.7,723.9,571.3,723.9z"/>
	</g>
	<g>
		<path d="M682.6,738.1c-5,0-9.8-1.2-13.9-3.7c-5.5-3.3-9.1-8.3-10.1-14c-2-11.9,7.8-23.4,21.8-25.8c6.7-1.1,13.5,0,18.9,3.2
			c5.5,3.3,9.1,8.3,10.1,14l0,0c2,11.9-7.8,23.4-21.8,25.8C686,737.9,684.3,738.1,682.6,738.1z M685.5,696.5c-1.6,0-3.1,0.1-4.7,0.4
			c-12.7,2.1-21.6,12.5-19.9,23.1c0.9,5.1,4,9.5,9,12.4c5,3,11.1,4,17.4,3c12.7-2.1,21.6-12.5,19.9-23.1l0,0c-0.9-5.1-4-9.5-9-12.4
			C694.4,697.7,690,696.5,685.5,696.5z"/>
	</g>
	<g>
		<path d="M596.6,855.1c-13,0-24.1-7.8-26-19.1c-1.1-6.3,0.9-12.6,5.3-17.9c4.4-5.2,10.9-8.8,18.2-10c15.1-2.5,29.2,5.8,31.4,18.7
			l0,0c1.1,6.3-0.9,12.6-5.3,17.9c-4.4,5.2-10.9,8.8-18.2,10C600.2,854.9,598.3,855.1,596.6,855.1z M599.6,809.9
			c-1.7,0-3.3,0.2-5.1,0.4c-6.8,1.1-12.7,4.4-16.8,9.2c-4,4.7-5.8,10.4-4.8,16c1.9,11.6,14.8,19.1,28.7,16.7
			c6.8-1.1,12.7-4.4,16.8-9.2c4-4.7,5.8-10.4,4.8-16C621.5,817,611.4,809.9,599.6,809.9z"/>
	</g>
	<g>
		<path d="M713.5,827.2c-7,0-13.6-1.8-19.3-5.1c-7.7-4.5-12.7-11.4-14-19.5c-0.2-1.2-0.3-2.4-0.4-3.5l2.3-0.1c0,1.1,0.2,2.2,0.3,3.2
			c1.2,7.4,5.8,13.7,12.9,17.9c7.2,4.2,16,5.7,24.8,4.2c18.3-3.1,31-17.9,28.5-33.2c-2-11.8-12.8-20.9-26.9-22.4l0.3-2.3
			c15.1,1.7,26.7,11.4,28.9,24.3c2.8,16.5-10.9,32.6-30.4,35.9C718.2,827,715.8,827.2,713.5,827.2z"/>
	</g>
	<g>
		<path d="M763.6,679.9c-3.7,0-6.7-2.6-6.7-5.8c0-3.2,3-5.8,6.7-5.8c3.7,0,6.7,2.6,6.7,5.8C770.3,677.3,767.4,679.9,763.6,679.9z
			 M763.6,670.3c-2.6,0-4.7,1.7-4.7,3.8c0,2.1,2.1,3.8,4.7,3.8c2.6,0,4.7-1.7,4.7-3.8C768.4,672,766.3,670.3,763.6,670.3z"/>
	</g>
	<g>
		<path d="M773.6,702.5c-3.7,0-6.7-2.6-6.7-5.8s3-5.8,6.7-5.8s6.7,2.6,6.7,5.8S777.3,702.5,773.6,702.5z M773.6,692.9
			c-2.6,0-4.7,1.7-4.7,3.8c0,2.1,2.1,3.8,4.7,3.8c2.6,0,4.7-1.7,4.7-3.8C778.4,694.7,776.3,692.9,773.6,692.9z"/>
	</g>
	<g>
		<path d="M782.9,725.1c-3.7,0-6.7-2.6-6.7-5.8c0-3.2,3-5.8,6.7-5.8s6.7,2.6,6.7,5.8C789.6,722.5,786.6,725.1,782.9,725.1z
			 M782.9,715.5c-2.6,0-4.7,1.7-4.7,3.8c0,2.1,2.1,3.8,4.7,3.8s4.7-1.7,4.7-3.8C787.6,717.2,785.5,715.5,782.9,715.5z"/>
	</g>
	<g>
		<path d="M790.9,747.7c-3.7,0-6.7-2.6-6.7-5.8c0-3.2,3-5.8,6.7-5.8c3.7,0,6.7,2.6,6.7,5.8C797.6,745.1,794.6,747.7,790.9,747.7z
			 M790.9,738.1c-2.6,0-4.7,1.7-4.7,3.8c0,2.1,2.1,3.8,4.7,3.8c2.6,0,4.7-1.7,4.7-3.8C795.6,739.9,793.5,738.1,790.9,738.1z"/>
	</g>
	<g>
		<polygon points="556.4,898.1 499.9,718.7 500.8,718.4 785.7,636.3 855.7,809.4 853.9,810.1 784.6,638.6 502.3,720 558.2,897.5 		
			"/>
	</g>
	<g>
		<g>
			<path d="M302.6,893.6l-4.6,1.3l-11.9-41.6l31.2-9.1l1.2,4l-26.7,7.7l4.1,14.3l24.4-7.6l1.2,4l-24.4,7.6L302.6,893.6z"/>
		</g>
	</g>
	<g>
		<path d="M671.1,782.6c1.3,3.3,1.1,6.3-0.7,9c-1.8,2.7-4.8,4.7-9,6.2c-4.6,1.6-8.4,2.2-11.3,1.9l-1.7-4.2c1.9,0.1,3.8,0,5.8-0.2
			s4-0.7,5.8-1.3c3-1,5.1-2.3,6.2-4c1.1-1.6,1.2-3.4,0.5-5.4c-0.5-1.3-1.2-2.3-2.1-2.9c-0.9-0.7-2.1-1.1-3.6-1.4
			c-1.6-0.3-3.8-0.4-6.7-0.4c-4.1,0-7.3-0.6-9.5-1.8c-2.2-1.2-3.9-3.2-5-5.9c-1.1-2.9-0.9-5.6,0.7-8.1c1.6-2.5,4.2-4.4,7.9-5.6
			c3.9-1.3,7.7-1.8,11.5-1.6l0.1,4.3c-3.7-0.2-7.1,0.2-10.2,1.2c-2.4,0.8-4.1,1.9-5,3.4c-1,1.4-1.1,3.1-0.4,4.8c0.5,1.3,1.2,2.3,2,3
			c0.8,0.7,1.9,1.1,3.4,1.4c1.4,0.3,3.6,0.5,6.3,0.5c4.6,0,8.1,0.6,10.2,1.7C668.5,778.2,670.1,780,671.1,782.6z"/>
		<path d="M705.9,782.1l-4.5,1.5l-13.3-33.7l-12.3,4.2l-1.5-3.9l29.2-9.9l1.5,3.9l-12.3,4.2L705.9,782.1z"/>
	</g>
	<g>
		<path d="M181.5,709.5c3.6-1,6.7-1,9.4,0c2.6,1.1,4.5,3,5.4,5.8c0.6,1.9,0.6,3.8-0.1,5.7c-0.7,1.9-2.1,3.9-4.4,5.9
			c3.7,0.6,6.5,1.5,8.4,2.8s3.2,3,3.9,5.1c1.1,3.2,0.8,6-0.9,8.6s-4.5,4.4-8.5,5.5c-4.2,1.2-7.8,1.2-10.7,0c-2.9-1.2-4.9-3.4-6-6.7
			c-1.5-4.4,0.2-8.6,4.9-12.6c-3-0.7-5.2-1.6-6.9-2.9c-1.6-1.3-2.8-2.9-3.4-4.9c-0.9-2.8-0.6-5.3,1-7.6
			C175.3,712.1,177.9,710.5,181.5,709.5z M182.6,713c-2.3,0.6-3.9,1.6-4.8,3.1c-0.9,1.4-1.1,3-0.5,4.7c0.5,1.6,1.5,2.8,3,3.7
			c1.4,0.9,3.8,1.4,7,1.8c2.2-1.8,3.7-3.4,4.4-4.9c0.7-1.5,0.7-3.1,0.2-4.7c-0.6-1.8-1.7-3-3.4-3.7
			C186.9,712.4,184.9,712.4,182.6,713z M182.7,741.1c0.7,2.1,2,3.5,3.9,4.3c1.9,0.7,4.2,0.7,6.9,0c2.7-0.7,4.6-1.9,5.7-3.6
			c1.1-1.6,1.3-3.5,0.6-5.6c-0.6-1.7-1.8-3-3.6-3.9c-1.9-0.9-4.7-1.5-8.6-1.8c-2.3,1.9-3.9,3.7-4.6,5.3
			C182.1,737.4,182,739.2,182.7,741.1z"/>
		<path d="M217,700.1l0.6,0.5c0.1,1.9,0.1,4.1,0,6.7c-0.1,2.6-0.3,5-0.6,7.2l-3.3,0.9c-0.4-5.3-0.9-10-1.6-13.9L217,700.1z"/>
		<path d="M264.6,707.7c2.2,6.6,2.8,11.9,1.7,15.7c-1.1,3.9-3.8,6.4-8.3,7.7c-4.3,1.2-8.1,0.4-11.4-2.3s-6.1-7.3-8.3-13.8
			c-2.2-6.7-2.8-11.9-1.8-15.8c1.1-3.9,3.8-6.4,8.2-7.6c4.3-1.2,8.1-0.4,11.5,2.3C259.7,696.7,262.4,701.3,264.6,707.7z
			 M242.9,713.8c1.9,5.6,3.9,9.5,6.1,11.6c2.2,2.2,4.8,2.8,7.7,2c3-0.9,4.7-2.7,5.2-5.7c0.5-3-0.2-7.2-2-12.7s-3.9-9.3-6.1-11.5
			c-2.2-2.2-4.8-2.8-7.8-2c-3,0.8-4.7,2.7-5.2,5.6C240.3,704,241,708.2,242.9,713.8z"/>
		<path d="M280.4,682.4l0.6,0.5c0.1,1.9,0.1,4.1,0,6.7s-0.3,5-0.6,7.2l-3.3,0.9c-0.4-5.3-0.9-10-1.6-13.9L280.4,682.4z M290.4,679.5
			l0.6,0.5c0.1,1.7,0.1,3.9,0,6.4c-0.1,2.6-0.3,5.1-0.6,7.5l-3.4,0.9c-0.1-1.9-0.3-4.2-0.6-7.1c-0.3-2.8-0.6-5.1-0.9-6.8
			L290.4,679.5z"/>
	</g>
	<g>
		<path d="M1093.9,305.1c-2.9,0-5.2-0.5-6.9-1.4c-1.7-0.9-2.6-2-2.6-3.5c0-1,0.4-1.8,1.4-2.6c0.9-0.8,2.5-1.5,4.6-2.1
			c-2.6-0.8-4.4-1.6-5.5-2.5c-1.1-0.9-1.7-1.8-1.7-2.9c0-1.6,0.9-2.9,2.6-3.8c1.8-0.9,4.3-1.4,7.5-1.3c3.4,0,6,0.5,7.8,1.5
			s2.8,2.3,2.8,3.9c0.1,2.2-2.1,3.9-6.5,5.1c2,0.7,3.5,1.5,4.4,2.3s1.4,1.7,1.4,2.7c0,1.4-0.8,2.5-2.5,3.3
			C1099,304.8,1096.8,305.1,1093.9,305.1z M1100.3,290.4c0-1.1-0.7-1.9-1.9-2.5c-1.2-0.6-2.9-0.9-5.1-1c-2.1,0-3.8,0.2-5,0.9
			c-1.2,0.6-1.8,1.4-1.7,2.5c0,0.9,0.6,1.6,1.8,2.3s3.1,1.4,6,2c2.1-0.5,3.7-1.1,4.6-1.8C1099.9,292.1,1100.4,291.3,1100.3,290.4z
			 M1093.9,303.3c1.8,0,3.2-0.2,4.2-0.7c1-0.5,1.5-1.2,1.5-2.1c0-0.8-0.5-1.5-1.3-2.1s-2.5-1.2-4.8-1.8c-2.1,0.5-3.5,1.1-4.4,1.6
			s-1.2,1.3-1.2,2.1c0,0.9,0.6,1.6,1.6,2.1C1090.6,303,1092,303.3,1093.9,303.3z"/>
		<path d="M1074.5,304.5l-0.4-0.3c0.4-0.9,0.9-1.9,1.6-3.1c0.7-1.2,1.4-2.3,2.1-3.2l2.6,0c-0.9,2.5-1.6,4.7-2,6.6L1074.5,304.5z"/>
		<path d="M1050.2,294.4c-0.1-3.3,0.7-5.8,2.4-7.5c1.7-1.6,4.3-2.4,7.9-2.4c3.4,0,6,0.9,7.9,2.7c1.8,1.7,2.8,4.2,2.9,7.5
			c0.1,3.4-0.7,5.9-2.4,7.5c-1.7,1.6-4.3,2.4-7.8,2.3c-3.4,0-6.1-0.9-7.9-2.7C1051.3,300.2,1050.3,297.7,1050.2,294.4z
			 M1067.5,294.7c-0.1-2.8-0.7-4.9-1.8-6.2c-1.1-1.3-2.8-2-5.2-2c-2.4,0-4.1,0.6-5.2,1.9s-1.5,3.3-1.4,6.1c0.1,2.8,0.7,4.9,1.8,6.1
			c1.1,1.3,2.9,2,5.3,2c2.4,0,4.1-0.6,5.1-1.8C1067.1,299.6,1067.6,297.6,1067.5,294.7z"/>
	</g>
	<g>
		<path d="M1059.5,204.7l3.7,0l0.5,19.5L1046,224l0-2l14,0.2l-0.2-7.1l-13.1-0.2l0-2l13.1,0.2L1059.5,204.7z"/>
	</g>
	<g>
		<path d="M1545.4,573.5c3.8,0.1,6.7-0.7,8.9-2.2c2.1-1.5,3.2-3.6,3.1-6.3c-0.1-2.8-1.2-4.9-3.3-6.5c-2.1-1.6-5.2-2.3-9.1-2.4
			c-2.4,0-5.1,0.2-8.2,0.7l0-2.1c2.4-0.5,5.3-0.7,8.8-0.7c5.1,0.1,9,1.1,11.8,3c2.8,1.9,4.2,4.6,4.4,8.1c0,2.2-0.5,4.1-1.8,5.7
			c-1.3,1.6-3.2,2.8-5.6,3.7c-2.5,0.9-5.4,1.2-8.8,1.2c-3.6,0-6.8-0.5-9.5-1.4l1.6-2.1C1540.2,573,1542.8,573.4,1545.4,573.5z"/>
		<path d="M1507.9,568.6c0-2.1,1.1-3.8,3.4-4.9c2.3-1.1,5.7-1.6,10.2-1.6l4,0.1l-0.2-8.3l4,0.1l0.5,21.1l-8.9-0.2
			C1512.3,574.8,1507.9,572.7,1507.9,568.6z M1525.5,564.3l-3.6,0c-3.5,0-6.1,0.3-7.7,0.9c-1.6,0.7-2.3,1.8-2.3,3.3
			c0,1.4,0.8,2.5,2.3,3.2c1.5,0.7,3.9,1.1,7,1.1l4.5,0.1L1525.5,564.3z"/>
	</g>
	<g>
		<path d="M1467.2,623.1l19.2,0.3l0.5,21.1l-19.2-0.3l0-2.2l15.2,0.2l-0.2-6.8l-14.2-0.2l0-2.2l14.2,0.2l-0.2-7.8l-15.2-0.2
			L1467.2,623.1z"/>
		<path d="M1438.2,637.6c0-2.1,1.1-3.8,3.4-4.9c2.3-1.1,5.7-1.6,10.2-1.6l4,0.1l-0.2-8.3l4,0.1l0.5,21.1l-8.9-0.2
			C1442.6,643.8,1438.2,641.6,1438.2,637.6z M1455.8,633.3l-3.6,0c-3.5,0-6.1,0.3-7.7,0.9c-1.6,0.7-2.3,1.8-2.3,3.3
			c0,1.4,0.8,2.5,2.3,3.2s3.9,1.1,7,1.1l4.5,0.1L1455.8,633.3z"/>
	</g>
	<g>
		<path d="M1862.2,662l-0.5-3.5l15.8,0.4c1.3,0,2.6,0.1,3.8,0.3c-0.3-0.3-0.5-0.7-0.8-1c-0.3-0.4-1.5-2.1-3.7-5.1l1.5-1.8l5.7,8.4
			l0.4,3L1862.2,662z"/>
		<path d="M1865.1,682.5l-0.5-3.5l15.8,0.4c1.3,0,2.6,0.1,3.8,0.3c-0.3-0.3-0.5-0.7-0.8-1c-0.3-0.4-1.5-2.1-3.7-5.1l1.5-1.8l5.7,8.4
			l0.4,3L1865.1,682.5z"/>
		<path d="M1889,695l-0.3,0.3c-1.1-0.4-2.3-1-3.7-1.7c-1.4-0.7-2.8-1.5-4-2.3l-0.4-2.6c3,1.1,5.7,1.8,7.9,2.3L1889,695z"/>
		<path d="M1880.6,714c-3.9-0.1-6.8-1-9-2.8s-3.4-4.4-3.9-7.9c-0.5-3.3,0.2-5.9,1.9-7.6c1.7-1.7,4.4-2.5,8.2-2.4
			c3.9,0.1,6.9,1,9,2.7c2.1,1.8,3.4,4.3,3.9,7.8c0.5,3.4-0.2,5.9-1.9,7.6C1887,713.2,1884.3,714,1880.6,714z M1878.2,697
			c-3.2-0.1-5.5,0.4-6.9,1.4c-1.3,1-1.8,2.7-1.5,5c0.3,2.4,1.3,4.1,3,5.2c1.6,1.1,4,1.7,7.2,1.8c3.2,0.1,5.4-0.4,6.8-1.4
			c1.3-1,1.8-2.7,1.5-5.1c-0.3-2.3-1.3-4-2.9-5.1C1883.9,697.6,1881.4,697,1878.2,697z"/>
		<path d="M1892.2,718.6l-0.3,0.3c-1.1-0.4-2.3-1-3.7-1.7c-1.4-0.7-2.8-1.5-4-2.3l-0.4-2.6c3,1.1,5.7,1.8,7.9,2.3L1892.2,718.6z
			 M1893.3,726.5l-0.3,0.3c-1-0.4-2.2-0.9-3.6-1.6c-1.4-0.7-2.8-1.5-4.2-2.3l-0.4-2.6c1.1,0.4,2.4,0.9,4,1.4
			c1.6,0.5,2.9,0.9,3.9,1.1L1893.3,726.5z"/>
	</g>
	<g>
		<path d="M1753.5,39.3l3.7,0l6.7,13.1c0.3,0.6,0.7,1.3,1.1,2.2c0.4,0.9,0.6,1.4,0.6,1.6c0.3-1.2,0.7-2.5,1.4-3.8l5.8-12.8l3.7,0
			l9,19.6l-3.9-0.1l-5.3-12.1c-0.7-1.7-1.3-3.2-1.6-4.6c-0.4,1.6-0.9,3.2-1.6,4.7l-5.4,11.7l-3.9-0.1l-6.3-12
			c-0.7-1.4-1.4-3-1.9-4.7c-0.2,1.2-0.7,2.8-1.4,4.6l-4.7,11.9l-3.9-0.1L1753.5,39.3z"/>
	</g>
	<g>
		<path d="M1801,20c-0.1-3.2,1.3-5.6,4-7.3c2.8-1.6,6.9-2.5,12.2-2.3l8.8,0.2l0.5,19.5l-9.7-0.2c-4.9-0.1-8.8-1-11.6-2.7
			C1802.6,25.4,1801.1,23,1801,20z M1804.9,20c0.1,2.5,1.2,4.5,3.3,5.8c2.1,1.3,5.2,2,9.3,2.1l5.3,0.1l-0.4-15.5l-4.5-0.1
			c-4.4-0.1-7.7,0.5-9.8,1.8C1805.9,15.4,1804.9,17.4,1804.9,20z"/>
	</g>
	<g>
		<path d="M852.2,480.2c-5.4,0-9.8-3.8-9.8-8.5c0-4.7,4.4-8.5,9.8-8.5s9.8,3.8,9.8,8.5C862,476.4,857.6,480.2,852.2,480.2z
			 M852.2,465.2c-4.4,0-7.9,2.9-7.9,6.5c0,3.6,3.5,6.5,7.9,6.5s7.9-2.9,7.9-6.5C860.1,468.1,856.6,465.2,852.2,465.2z"/>
	</g>
	<g>
		<path d="M767.8,305.3c2.7,5.7,2.8,10.7,0.5,14.9c-2.3,4.2-7,7.4-14,9.6l-11.6,3.7l-16.2-34.7l12.8-4c6.5-2.1,12.2-2.1,17.2-0.3
			C761.5,296.3,765.3,299.9,767.8,305.3z M762.7,307c-2.1-4.5-5.1-7.5-8.9-9c-3.8-1.4-8.4-1.3-13.8,0.4l-7,2.2l13,27.8l5.9-1.9
			c5.8-1.8,9.6-4.4,11.4-7.7C765.1,315.6,764.9,311.6,762.7,307z"/>
		<path d="M784.2,280.5l0.7,39.6l-4.7,1.5l-0.7-39.6L784.2,280.5z"/>
		<path d="M843.2,301.8l-4.8,1.5l-19.3-20.6c-0.9-0.9-1.9-2.1-3.2-3.5c-1.2-1.4-1.9-2.3-2.1-2.6c0.5,2.2,1,4.7,1.2,7.5l2.6,25.7
			l-4.8,1.5l-27.3-31.2l5.1-1.6l16.6,19.4c2.3,2.7,4.2,5.2,5.8,7.6c-0.9-3.1-1.4-6.1-1.7-9.2l-2.4-23.5l5.1-1.6L832,290
			c2.1,2.2,4.1,4.7,6.2,7.6c-0.7-2.4-1.3-5.3-1.8-8.9l-3.4-23.5l5.1-1.6L843.2,301.8z"/>
	</g>
	<g>
		<path d="M204.6,437.9c-8.4,0-16.8-0.4-25.1-1.3c-23.6-2.5-45.6-8.6-65.4-18c-19.8-9.4-36.3-21.7-49.1-36.5
			c-13.3-15.4-22-32.8-25.8-51.8s-2.7-38.5,3.5-57.8c6-18.6,16.4-36.4,30.9-52.8c14.5-16.3,32.3-30.6,53.1-42.1
			c21.4-12,45.1-20.6,70.2-25.8c25.1-5.1,50.3-6.4,74.7-3.7c23.6,2.5,45.6,8.6,65.4,18c19.8,9.4,36.3,21.7,49.1,36.5
			c13.3,15.4,22,32.8,25.8,51.8s2.7,38.5-3.5,57.8c-6,18.6-16.4,36.4-30.9,52.8c-14.5,16.3-32.3,30.6-53.1,42.1
			c-21.4,12-45.1,20.6-70.2,25.8C237.6,436.2,221,437.9,204.6,437.9z M246.6,148.9c-16.3,0-32.7,1.7-49.2,5
			c-24.9,5.1-48.3,13.7-69.5,25.5c-20.5,11.4-38.2,25.5-52.5,41.6c-14.3,16.2-24.5,33.6-30.4,52c-6.1,19-7.3,38-3.5,56.6
			c3.8,18.6,12.3,35.7,25.3,50.8c12.6,14.6,28.9,26.7,48.3,36c19.5,9.3,41.2,15.3,64.6,17.8c24.2,2.6,49.1,1.4,74-3.7
			s48.3-13.7,69.5-25.5c20.5-11.4,38.2-25.5,52.5-41.6c14.3-16.2,24.5-33.6,30.4-52c6.1-19,7.3-38,3.5-56.6
			c-3.8-18.6-12.3-35.7-25.3-50.8c-12.6-14.6-28.9-26.7-48.3-36c-19.5-9.3-41.2-15.3-64.6-17.8C263.2,149.4,254.9,148.9,246.6,148.9
			z"/>
	</g>
	<g>
		<path d="M379.3,196.4l-2-1.2l35.7-58.6c0.1-0.2,3.2-5.9-0.1-11.8l-0.1-0.1l0-0.2c-0.4-1.4-2.6-4.6-13.7-10.3
			c-27.2-13.9-77.3-28.2-84.5-25.4l-0.2,0.1h-0.2c-4.9,0.2-10.1,3.1-15.4,8.6c-6.8,7.2-49.6,50.6-50,51l-1.7-1.6
			c0.4-0.4,43.2-43.8,50-51c5.6-5.9,11.3-9.1,16.8-9.4c6.1-2.1,27.7,4,36.7,6.7c18.5,5.5,37.5,12.8,49.5,18.9
			c9.1,4.6,13.9,8.4,14.9,11.6c3.9,7.1,0.2,13.8,0,14.1L379.3,196.4z"/>
	</g>
	<g>
		<path d="M414.4,125.3l-0.9-2.1c5.6-2.4,10.7-5.5,11.2-6.7C395.5,92.9,343.4,78,314.5,79.3c-0.5,0.9-0.1,4.7,0.8,8.2l-2.3,0.6
			c-0.5-1.8-1.9-7.8-0.5-10c0.4-0.7,1-0.9,1.4-1.1l0.1,0h0.1c14.3-0.7,34.9,2.7,55.1,9c22.8,7.2,43,17.4,57.1,28.7
			c0.6,0.5,0.9,1.2,0.8,1.9C426.7,119.7,418.1,123.7,414.4,125.3z"/>
	</g>
	<g>
		<path d="M430.1,427.1c-2.9,0-4.9-0.7-5.3-0.8l-91.4-24.9l0.6-2.3l91.5,24.9h0c0.1,0,6.7,2.3,12.9-1.8l0.2-0.1
			c9.1-4.2,22.2-16.8,35.2-33.9c12.7-16.6,22.2-33.6,24.9-44.3c1.2-4.6,1-8-0.4-9.8l-0.1-0.2l-0.1-0.2c-1.8-5.4-5-9-10.7-12
			c-8.8-4.6-74.4-37.8-75.1-38.1l1.1-2.1c0.7,0.4,66.3,33.6,75.1,38.2c6.2,3.2,9.8,7.2,11.8,13.2c1.8,2.5,2,6.4,0.7,11.7
			c-2.7,11-12.4,28.3-25.3,45.2c-13.2,17.3-26.7,30.2-36,34.5C436.3,426.5,432.8,427.1,430.1,427.1z"/>
	</g>
	<g>
		<path d="M448.1,431.7c-3.7,0-8.4-5.8-10-7.7l1.8-1.4c3.3,4.4,7.3,7.5,8.5,6.7c14.2-9.3,31.2-28.5,41-42.4
			c15.2-21.6,22.2-41.1,19.8-55.1c-1.2-0.3-5.4,0.9-9.6,2.8l-0.9-2.1c0.1,0,2.6-1.1,5.2-2c4.3-1.4,6.5-1.3,7.4,0.2l0.1,0.2l0,0.2
			c1.5,7.9,0.2,17.3-3.9,27.9c-3.5,9.2-9,19-16.2,29.3c-14.2,20.2-31.2,36.2-41.6,43C449.3,431.5,448.7,431.7,448.1,431.7z"/>
	</g>
	<g>
		<path d="M124.2,515.7c-11.5,0-32.8-6.1-51.3-13.1c-21.8-8.3-47.6-20.7-54.8-31c-2.6-2.6-3.5-6.2-2.4-10.3c0.7-2.8,2.1-5,2.3-5.3
			L64.4,380l2,1.2l-46.4,76.1v0c0,0-1.4,2-2,4.7c-0.8,3.3-0.2,6,1.9,8.1l0.1,0.1l0.1,0.1c3,4.2,9.9,9.5,20.2,15.1
			c9.4,5.1,21,10.4,33.6,15.1c25.6,9.7,48.2,14.8,55.1,12.4c1.8-1.1,3.7-1.8,5.7-2.6c3.8-1.5,7.7-3.1,10.7-6.6
			c4.8-5.6,58.6-67,59.2-67.6l1.8,1.6c-0.5,0.6-54.3,62-59.2,67.6c-3.4,3.9-7.7,5.7-11.6,7.2c-2,0.8-3.8,1.6-5.4,2.5l-0.1,0.1
			l-0.1,0C128.3,515.5,126.4,515.7,124.2,515.7z"/>
	</g>
	<g>
		<path d="M123.5,528.3c-16.3,0-39.9-6.1-65-16.9C34.8,501.3,14.3,488.9,5.1,479c-0.5-0.5-0.7-1.3-0.5-2c0.8-3,10.1-6.1,14.1-7.3
			l0.7,2.2c-6.1,1.8-11.7,4.4-12.4,5.6c9.1,9.6,29.2,21.8,52.6,31.8c25.1,10.8,48.6,16.8,64.6,16.7c1-1.6,2.8-7.4,4.1-12.5l2.3,0.6
			c-0.7,2.8-3.2,12.1-5,13.9l-0.3,0.3h-0.4C124.2,528.3,123.8,528.3,123.5,528.3z"/>
	</g>
	<g>
		<polygon points="1362.6,919.8 1354.5,814.5 1342.1,814.5 1347.4,885.7 1344.3,885.9 1338.7,811.4 1357.4,811.4 1365.7,919.5 		"/>
	</g>
	<g>
		<polygon points="1155.6,262.6 1139.3,262.6 1134.6,168.4 982.3,163.7 982.4,160.6 1137.5,165.3 1142.2,259.5 1152.3,259.5 
			1143.2,40.3 1132.6,40.3 1136.9,129.9 964,125.6 964.1,122.5 1133.7,126.7 1129.4,37.2 1146.1,37.2 		"/>
	</g>
	<g>
		<path d="M1488.4,765.5l-0.4-0.4l-154.6-127.4l8.6-8.4l152.7,129.4L1488.4,765.5z M1335.1,637.7l153.2,126.2l4.7-5L1342,631
			L1335.1,637.7z"/>
	</g>
	<g>
		<path d="M1356,813.6v-1.2c30.6,0,53.1-3.2,73-10.2c20.5-7.3,39.2-19.3,58.9-37.9l0.8,0.9c-19.8,18.7-38.7,30.8-59.4,38.1
			C1409.4,810.4,1386.7,813.6,1356,813.6z"/>
	</g>
	<g>
		<polygon points="1923.5,607.7 1876.1,607.7 1875.9,601 1733,596.6 1733.1,604.6 1588.6,599.3 1588.7,597.4 1731.1,602.5 
			1731.1,594.5 1877.8,599.1 1878,605.7 1923.5,605.7 		"/>
	</g>
	<g>
		<polygon points="1923.8,614.4 1874.2,614.3 1873.8,607.6 1737.7,603.9 1737.7,610.5 1589.7,607.6 1589.7,605.6 1735.7,608.6 
			1735.7,601.9 1875.6,605.8 1876,612.3 1923.8,612.5 		"/>
	</g>
	<g>
		<path d="M1565.8,537.1l-35-0.6l0-1.9l35,0.6L1565.8,537.1z M1495.7,535.9l-35-0.6l0-1.9l35,0.6L1495.7,535.9z M1425.7,534.8
			l-35-0.6l0-1.9l35,0.6L1425.7,534.8z M1355.6,533.6l-21-0.4l0-1.9l21,0.4L1355.6,533.6z"/>
	</g>
	<g>
		
			<rect x="1447.7" y="399" transform="matrix(3.242716e-02 -0.9995 0.9995 3.242716e-02 887.231 1946.0063)" width="1.9" height="231.4"/>
	</g>
	<g>
		<polygon points="1559.7,483.2 1438,480 1438,472.2 1331.6,469.4 1331.6,467.4 1440,470.3 1440,478.1 1559.7,481.2 		"/>
	</g>
	<g>
		<polygon points="1558.8,476.1 1446.8,473.1 1446.8,465.3 1329.3,462.9 1329.4,460.9 1448.7,463.4 1448.7,471.2 1558.8,474.1 		"/>
	</g>
	<g>
		<path d="M1786.4,457.8c-6.9,0-14.3-1.6-21.4-4.9c-20.5-9.6-31.2-30.2-23.9-45.8c7.4-15.6,30-20.6,50.5-10.9
			c20.5,9.6,31.2,30.2,23.9,45.8l0,0C1810.7,452.2,1799.4,457.8,1786.4,457.8z M1770.2,393.2c-12.2,0-22.8,5.2-27.3,14.8
			c-6.9,14.7,3.4,34.1,22.9,43.2c19.5,9.1,41,4.7,47.9-10l0,0c6.9-14.7-3.4-34.1-22.9-43.2C1784,394.8,1776.9,393.2,1770.2,393.2z"
			/>
	</g>
	<g>
		<path d="M1782.8,443.5c-4,0-8.1-0.9-12.1-2.8c-11.6-5.4-17.6-17.1-13.4-26c2.1-4.4,6.2-7.4,11.6-8.6c5.4-1.1,11.4-0.3,16.9,2.3
			c11.6,5.4,17.6,17.1,13.4,26l0,0c-2.1,4.4-6.2,7.4-11.6,8.6C1786.1,443.3,1784.5,443.5,1782.8,443.5z M1773.9,407.6
			c-1.5,0-3,0.2-4.5,0.5c-4.9,1-8.5,3.7-10.3,7.5c-3.7,7.9,1.9,18.4,12.5,23.4c5.2,2.5,10.8,3.2,15.7,2.1c4.9-1,8.5-3.7,10.3-7.5
			c3.7-7.9-1.9-18.4-12.5-23.4C1781.4,408.5,1777.5,407.6,1773.9,407.6z"/>
	</g>
	<g>
		<path d="M1780.2,433c-1.7,0-3.5-0.4-5.3-1.2c-2.5-1.1-4.4-3-5.5-5.1c-1.2-2.2-1.3-4.6-0.4-6.5c1.9-4,7.6-5.3,12.7-2.9
			c2.5,1.1,4.4,3,5.5,5.1c1.2,2.2,1.3,4.6,0.4,6.5l0,0C1786.4,431.6,1783.5,433,1780.2,433z M1776.4,418.1c-2.5,0-4.7,1.1-5.6,3
			c-0.7,1.4-0.5,3.1,0.3,4.8c0.9,1.8,2.6,3.3,4.6,4.2c4.1,1.9,8.7,1.1,10.1-1.9l0,0c0.7-1.4,0.5-3.1-0.3-4.8
			c-0.9-1.8-2.6-3.3-4.6-4.2C1779.4,418.4,1777.9,418.1,1776.4,418.1z"/>
	</g>
	<g>
		<rect x="1760.8" y="423.8" transform="matrix(0.8027 -0.5964 0.5964 0.8027 97.5863 1144.491)" width="35.4" height="1.9"/>
	</g>
	<g>
		<rect x="1777.7" y="402.5" transform="matrix(0.6384 -0.7697 0.7697 0.6384 316.6223 1522.4716)" width="1.9" height="43.4"/>
	</g>
	<g>
		<path d="M1869.5,467.5l-75.6-88.7l14.4-7.1l69.8,80.8v11.1L1869.5,467.5z M1797,379.5l73.1,85.7l6-2.8v-9.1l-68.3-79.1L1797,379.5
			z"/>
	</g>
	<g>
		<path d="M1810.2,375.4l-1.2-1.5c8.8-7.2,21.6-13.9,30.7-18.1c11.5-5.4,23.8-10.2,33.8-13.2l0.5,1.9
			C1848.7,351.9,1821.7,366,1810.2,375.4z"/>
	</g>
	<path d="M1921.2,413.3c-18.3,12.8-44.1,20.9-44.4,21l-0.3,0.1l-0.2,0.3c0,0.1-5.7,7.7-7.1,9.2l1.4,1.3c1.3-1.4,6-7.7,7-9.1
		c3-0.9,26.1-8.4,43.5-20.6V413.3z"/>
	<g>
		<polygon points="1796.7,381.6 1548,372.8 1519.9,178 1521.1,178.1 1671.6,184.3 1671.5,186.2 1522.2,180.1 1549.6,370.9 
			1796.8,379.6 		"/>
	</g>
	<g>
		<path d="M1737,227.5c-25.1,0-55.5-3.6-60-12.9c-4.8-9.9-10-44.9-10.2-46.4l3.1-0.5c0,0.4,5.4,36,10,45.5c0.9,1.8,4.9,6.1,24.7,9
			c12.6,1.8,28.6,2.6,42.8,1.9c21.1-0.9,27.8-4.2,28.4-5.8c0.9-2.4-2.1-20.1-9.5-48.3l3-0.8c0,0.1,2.9,11.1,5.5,22.7
			c5.4,23.7,4.3,26.5,3.9,27.5c-2.1,5.4-18.1,7.2-31.1,7.7C1744.1,227.4,1740.6,227.5,1737,227.5z"/>
	</g>
	<g>
		<path d="M1725.9,211.7c-0.2,0-0.4,0-0.5,0c-14.3,0-35-2.1-52.2-11.6l1.5-2.7c13,7.2,31,11.2,50.7,11.2c17.8,0.1,35.7-3,49.1-8.4
			l1.2,2.9C1762,208.5,1743.9,211.7,1725.9,211.7z"/>
	</g>
	<g>
		<polygon points="1890.5,176.3 1509.2,162.9 1495.7,83.6 1498.8,83.1 1511.8,159.9 1886.4,173 1866.9,102.5 1869.9,101.7 		"/>
	</g>
	<g>
		
			<rect x="1597" y="-80.1" transform="matrix(4.400714e-02 -0.999 0.999 4.400714e-02 1493.5131 1630.2448)" width="3.1" height="229.7"/>
	</g>
	<g>
		<path d="M1238.3,235.7l-85.6-2.8l0.1-3.1l82.2,2.6l-10.4-147.4c-10.7-0.2-74.8-1.3-78.2-1.5l0.2-3.1c3.5,0.3,78.7,1.6,79.4,1.6
			l1.4,0L1238.3,235.7z"/>
	</g>
	<g>
		<polygon points="1091.9,127.3 1090.1,47.7 951.6,42.6 950.4,97.9 947.3,97.8 948.6,39.4 1093.1,44.7 1095,127.2 		"/>
	</g>
	<g>
		<rect x="990.1" y="42.5" width="3.1" height="82.2"/>
	</g>
	<g>
		<path d="M1043.1,89.9c-3.3,0-6-2.7-6-6s2.7-6,6-6c3.3,0,6,2.7,6,6S1046.4,89.9,1043.1,89.9z M1043.1,80.9c-1.6,0-2.9,1.3-2.9,2.9
			s1.3,2.9,2.9,2.9c1.6,0,2.9-1.3,2.9-2.9S1044.7,80.9,1043.1,80.9z"/>
	</g>
	<g>
		<rect x="960.5" y="2.2" width="3.1" height="39.2"/>
	</g>
	<g>
		<polygon points="1017.9,43.6 1016.8,2.2 1020,2.2 1021,43.5 		"/>
	</g>
	<g>
		
			<rect x="1016.3" y="-96.5" transform="matrix(3.099895e-02 -0.9995 0.9995 3.099895e-02 972.234 1031.005)" width="3.1" height="221.2"/>
	</g>
	<g>
		<path d="M1140.6,261.6l-35-0.4l0-3.1l35,0.4L1140.6,261.6z M1070.6,260.8l-35-0.4l0-3.1l35,0.4L1070.6,260.8z"/>
	</g>
	<g>
		<polygon points="1867.4,638.9 1872.3,638.9 1865.8,616.2 		"/>
	</g>
	<g>
		<polygon points="1739.3,2.2 1733.7,2.2 1868,91.5 1845.4,2.2 1842.2,2.2 1863,84.4 		"/>
	</g>
	<polygon points="1715.3,1.8 1732.8,82.3 1735.8,81.6 1718.4,1.8 	"/>
	<polygon points="1704.1,1.8 1721.2,82.3 1724.3,81.6 1707.3,1.8 	"/>
	<polygon points="1646.1,2.2 1663.5,79.9 1666.6,79.2 1649.3,2.2 	"/>
	<path d="M1591,2.2c4.7,22.3,11.6,54.6,16,75.3l3-0.7c-2.3-10.6-10.3-48.6-15.9-74.7L1591,2.2L1591,2.2z"/>
	<polygon points="1535.3,1.8 1548.7,75 1551.7,74.5 1538.4,1.8 	"/>
	<polygon points="1478.3,2.2 1487.8,68.1 1490.9,67.6 1481.4,2.2 	"/>
	<polygon points="1412.7,2.2 1355.1,40 1351.1,33.8 1399.2,2.2 1393.5,2.2 1346.8,32.9 1354.2,44.3 1418.3,2.2 	"/>
	<path d="M1306.8,2.2c-7.5,7.5-16.7,14.3-27.7,20.2c-12.6,6.8-27.3,12.4-43.9,16.8c-28.3,7.4-52.3,8.6-52.5,8.6l0.2,3.1
		c0.2,0,24.5-1.2,53.1-8.7c16.8-4.4,31.8-10.2,44.6-17c12.3-6.6,22.5-14.3,30.6-22.9C1311.2,2.2,1306.8,2.2,1306.8,2.2z"/>
	<polygon points="1178.7,2.2 1181.1,47.7 1169.7,47.7 1167.1,2.2 1164,2.2 1166.7,50.9 1184.4,50.9 1181.8,2.2 	"/>
	<polygon points="1127.5,2.2 1129.6,38.9 1135.4,38.6 1133.3,2.2 	"/>
	<rect x="1074.7" y="2.2" width="3.1" height="43.4"/>
	<g>
		
			<image style="overflow:visible;opacity:0.45;enable-background:new    ;" width="1552" height="3295" xlink:href="6F1917C05D0F4646.png"  transform="matrix(0.389 0 0 0.3891 900.2335 -2.4204)">
		</image>
		<g>
			
				<image style="overflow:visible;opacity:0.66;enable-background:new    ;" width="1529" height="3275" xlink:href="6F1917C05D0F4645.png"  transform="matrix(0.3892 0 0 0.3892 904.0799 1.0368)">
			</image>
			<g>
				<polyline class="st1" points="907.3,4.2 1490.6,1177 1241.2,1266.8 				"/>
			</g>
		</g>
	</g>
	<g>
		
			<image style="overflow:visible;opacity:0.45;enable-background:new    ;" width="1554" height="3296" xlink:href="6F1917C05D0F4642.png"  transform="matrix(0.389 0 0 0.3891 893.6164 -2.8096)">
		</image>
		<g>
			
				<image style="overflow:visible;opacity:0.66;enable-background:new    ;" width="1532" height="3275" xlink:href="6F1917C05D0F464D.png"  transform="matrix(0.3892 0 0 0.3892 897.4628 1.0368)">
			</image>
			<g>
				<polyline class="st1" points="900.9,4.2 1485.1,1179 1241.2,1266.8 				"/>
			</g>
		</g>
	</g>
	<polygon points="606.9,2.2 555.7,14.8 548.5,2.2 545,2.2 554.2,18.4 619.9,2.2 	"/>
	<polygon points="339.1,2.2 28.8,68.2 12.6,2.2 10.2,2.2 27,70.9 350.3,2.2 	"/>
	<path d="M16.4,148.4c-0.7-0.2-1.5,0.1-2,0.7c-3,3.5-6.7,7.4-11.1,12c-0.1,0.1-0.2,0.2-0.3,0.4v3.4c0.7-0.7,1.4-1.4,2-2.1
		c4.3-4.6,8-8.5,11.1-12c1.1,0.7,3.4,5.4,5.1,10.4l2.2-0.7C22.2,157,19.3,149,16.4,148.4z"/>
	<g>
		<path d="M3,276.2c16.2,6.5,35.1,13.6,36.4,14.1l0.8-2.2c-0.3-0.1-20.5-7.7-37.3-14.4V276.2z"/>
		<path d="M38.5,158.7c-0.4-0.1-8.8-2.2-16.7,1.1c-5.9,2.6-12.4,8-18.8,14.9v3.5c7-8,13.9-13.6,19.7-16.2c7.1-2.9,15.1-0.9,15.2-0.9
			l83,22.1l0.6-2.3L38.5,158.7z"/>
	</g>
	<polygon points="3,927.1 109,895.3 108.4,893.1 3,924.7 	"/>
	<polygon points="109.3,1272.7 187.8,1249.1 187.1,1246.9 101.2,1272.7 	"/>
	<polygon points="488,1038.1 277.1,1102.6 276,1103 319.8,1272.7 322.2,1272.7 278.8,1104.5 486.4,1041 541,1220.6 382.7,1272.7 
		390.1,1272.7 542.8,1222.4 543.9,1222 	"/>
	<polygon points="446.9,1272.7 454.5,1272.7 634.5,1213.9 564,997.5 561.8,998.2 631.5,1212.4 	"/>
	<path d="M632,1272.7c-2.9-9-15.6-48.6-17.2-53.6l-2.2,0.7c5.2,16,14.3,44.4,17,52.9H632z"/>
	<polygon points="729.5,1272.7 890.7,1220.1 890,1217.8 723,1272.3 723.1,1272.7 	"/>
	<polygon points="772.6,1272.7 744,1191.2 741.8,1192 770.1,1272.7 	"/>
	<polygon points="973.8,1193 1005.2,1272.7 1007.7,1272.7 1007.7,1272.7 975.2,1190.1 888.8,1218.2 910.2,1272.7 912.7,1272.7 
		891.9,1219.7 	"/>
	<path d="M1047,1272.7c-13.5-26-30.4-65-30.6-65.5l-2.1,0.9c0.2,0.5,16.6,38.4,30.1,64.5H1047z"/>
	<path d="M1921.2,1166.9h-290c-5.7,0-10.6-4.2-11.4-9.8l-48.5-328.6c-0.5-3.4,0.5-6.8,2.8-9.3c2.3-2.6,5.5-4,9-3.9l338.2,8.4v-1.2
		l-338.2-8.4c-3.7-0.1-7.4,1.5-9.8,4.3s-3.6,6.6-3.1,10.3l48.5,328.6c0.9,6.2,6.3,10.9,12.6,10.9h290.1V1166.9z"/>
	<g>
		
			<rect x="1632" y="519.6" transform="matrix(1.650881e-02 -0.9999 0.9999 1.650881e-02 1068.9039 2160.9775)" width="1.9" height="35"/>
		
			<rect x="1702" y="520.8" transform="matrix(1.650881e-02 -0.9999 0.9999 1.650881e-02 1136.6282 2232.1963)" width="1.9" height="35"/>
		<polygon points="1921.2,541 1895.6,540.6 1895.6,542.5 1921.2,543 		"/>
		
			<rect x="1842.1" y="523.1" transform="matrix(1.650339e-02 -0.9999 0.9999 1.650339e-02 1272.1282 2374.5225)" width="1.9" height="35"/>
		
			<rect x="1772.1" y="522" transform="matrix(1.650339e-02 -0.9999 0.9999 1.650339e-02 1204.4016 2303.3809)" width="1.9" height="35"/>
	</g>
	<polygon points="1921.2,556.8 1906.1,490.5 1904.2,490.9 1920,560.1 1584.9,553.9 1584.9,555.8 1921.2,562.1 	"/>
	<g>
		<polygon points="1921.2,454 1919.7,454.6 1921.2,458.4 		"/>
		<polygon points="1575.4,483.3 1921.2,492.7 1921.2,489.6 1571.8,480.2 1588.9,612.7 1338.4,607.4 1339.9,628.7 1327.8,628.7 
			1316.8,463.6 1327.9,463.5 1337.2,587.4 1573.7,593.5 1575.6,593.5 1559.8,470.5 1921.2,480 1921.2,476.8 1556.2,467.3 
			1572,590.3 1340.1,584.4 1330.8,460.3 1313.4,460.6 1324.8,630.4 1325,631.8 1343.3,631.8 1341.7,610.6 1592.5,615.9 		"/>
	</g>
	<path d="M1921.2,436.6c-16,7.3-44.1,18-44.5,18.2l0.7,1.8c1.4-0.5,27.8-10.6,43.8-17.8L1921.2,436.6L1921.2,436.6z"/>
	<path d="M1921.2,426.2c-5.5,2.5-12.8,5.3-19.6,7.7c-17.5,6.5-28.1,10.7-28.8,14.7l1.9,0.4c0.6-3.2,15.6-8.8,27.6-13.2
		c6.9-2.6,13.6-5.1,18.9-7.4L1921.2,426.2L1921.2,426.2z"/>
	<polygon points="1921.2,393.2 1875.2,343.8 1885.2,337.6 1921.2,377.7 1921.2,374.8 1885.5,335 1872.2,343.4 1921.2,396 	"/>
	<polygon points="1921.2,327.4 1887.4,190.6 1771.6,187.2 1771.6,189.2 1885.9,192.5 1921.2,335.5 	"/>
	<polygon points="1921.2,187.3 1895.8,102.9 1895.5,101.9 1479.6,80.9 1476.9,63.3 1486.4,63.3 1489.5,73.8 1892.5,90.6 1866.6,1.8 
		1863.6,2.6 1888.3,87.4 1491.8,70.7 1488.7,60.2 1473.3,60.2 1476.8,83.9 1893.1,104.9 1921.2,198.1 	"/>
	<polygon points="1921.2,54 1904.7,2.2 1901.5,2.2 1921.2,64.3 	"/>
	<path d="M1318.4,1238.1l2.3-0.8c-0.3-3.2-1.2-6.4-2.6-9.5l-167.8-357.4c-3-6.3-8.1-11.2-14.4-14.1c-6.3-2.8-13.4-3.2-20-1.2
		l-204.7,62.5c-7.7,2.4-14.2,7.9-17.6,15.2c-3.5,7.3-3.7,15.8-0.5,23.3l131.3,316.5h2.5L895.1,955.3c-2.8-6.9-2.6-14.7,0.5-21.4
		c3.2-6.7,9.1-11.8,16.2-14l204.7-62.5c2.5-0.8,5.1-1.2,7.7-1.2c3.7,0,7.3,0.8,10.7,2.3c5.8,2.6,10.5,7.2,13.2,12.9l167.8,357.4
		C1317.3,1231.8,1318.1,1234.9,1318.4,1238.1z"/>
</g>
<g id="Layer_3" class="st0">
	<g class="st2">
		<g>
			<polygon class="st3" points="295.5,-1947.1 2520.9,2533.1 2566.5,2510.5 333.7,-1984.5 -3397.1,-131.4 -3389.8,-116.6 			"/>
			<polygon class="st4" points="295.3,-1947.4 2520.7,2532.8 2566.1,2510.3 333.4,-1984.7 -3397.3,-131.7 -3390,-116.9 			"/>
			<polygon class="st5" points="295.1,-1947.7 2520.5,2532.5 2565.8,2510.1 333.1,-1984.9 -3397.5,-132 -3390.2,-117.2 			"/>
			<polygon class="st6" points="294.9,-1948.1 2520.3,2532.1 2565.5,2509.9 332.8,-1985.1 -3397.7,-132.3 -3390.3,-117.5 			"/>
			<polygon class="st7" points="294.7,-1948.4 2520.1,2531.8 2565.2,2509.6 332.4,-1985.3 -3397.9,-132.6 -3390.5,-117.8 			"/>
			<polygon class="st8" points="294.6,-1948.7 2520,2531.5 2564.9,2509.4 332.1,-1985.5 -3398.1,-132.9 -3390.7,-118.1 			"/>
			<polygon class="st9" points="294.4,-1949 2519.8,2531.2 2564.6,2509.2 331.8,-1985.7 -3398.2,-133.3 -3390.9,-118.5 			"/>
			<polygon class="st10" points="294.2,-1949.3 2519.6,2530.9 2564.2,2509 331.5,-1985.9 -3398.4,-133.6 -3391.1,-118.8 			"/>
			<polygon class="st11" points="294,-1949.6 2519.4,2530.6 2563.9,2508.8 331.2,-1986.1 -3398.6,-133.9 -3391.3,-119.1 			"/>
			<polygon class="st12" points="293.8,-1950 2519.2,2530.2 2563.6,2508.6 330.9,-1986.3 -3398.8,-134.2 -3391.4,-119.4 			"/>
			<polygon class="st13" points="293.6,-1950.3 2519,2529.9 2563.3,2508.4 330.5,-1986.5 -3399,-134.5 -3391.6,-119.7 			"/>
			<polygon class="st14" points="293.5,-1950.6 2518.9,2529.6 2563,2508.2 330.2,-1986.7 -3399.2,-134.8 -3391.8,-120.1 			"/>
			<polygon class="st15" points="293.3,-1950.9 2518.7,2529.3 2562.7,2508 329.9,-1986.9 -3399.3,-135.2 -3392,-120.4 			"/>
			<polygon class="st16" points="293.1,-1951.2 2518.5,2529 2562.3,2507.8 329.6,-1987.1 -3399.5,-135.5 -3392.2,-120.7 			"/>
			<polygon class="st17" points="292.9,-1951.5 2518.3,2528.6 2562,2507.6 329.3,-1987.3 -3399.7,-135.8 -3392.3,-121 			"/>
			<polygon class="st18" points="292.7,-1951.9 2518.1,2528.3 2561.7,2507.4 329,-1987.5 -3399.9,-136.1 -3392.5,-121.3 			"/>
			<polygon class="st19" points="292.6,-1952.2 2518,2528 2561.4,2507.2 328.6,-1987.7 -3400.1,-136.4 -3392.7,-121.6 			"/>
			<polygon class="st20" points="292.4,-1952.5 2517.8,2527.7 2561.1,2507 328.3,-1987.9 -3400.2,-136.8 -3392.9,-122 			"/>
			<polygon class="st21" points="292.2,-1952.8 2517.6,2527.4 2560.8,2506.8 328,-1988.1 -3400.4,-137.1 -3393.1,-122.3 			"/>
			<polygon class="st22" points="292,-1953.1 2517.4,2527.1 2560.5,2506.6 327.7,-1988.3 -3400.6,-137.4 -3393.3,-122.6 			"/>
			<polygon class="st23" points="291.8,-1953.5 2517.2,2526.7 2560.1,2506.4 327.4,-1988.5 -3400.8,-137.7 -3393.4,-122.9 			"/>
			<polygon class="st24" points="291.6,-1953.8 2517,2526.4 2559.8,2506.2 327.1,-1988.7 -3401,-138 -3393.6,-123.2 			"/>
			<polygon class="st25" points="291.5,-1954.1 2516.9,2526.1 2559.5,2506 326.8,-1988.9 -3401.2,-138.3 -3393.8,-123.5 			"/>
			<polygon class="st26" points="291.3,-1954.4 2516.7,2525.8 2559.2,2505.8 326.4,-1989.1 -3401.3,-138.7 -3394,-123.9 			"/>
			<polygon class="st27" points="291.1,-1954.7 2516.5,2525.5 2558.9,2505.6 326.1,-1989.3 -3401.5,-139 -3394.2,-124.2 			"/>
			<polygon class="st28" points="290.9,-1955 2516.3,2525.2 2558.6,2505.4 325.8,-1989.5 -3401.7,-139.3 -3394.4,-124.5 			"/>
			<polygon class="st29" points="290.7,-1955.4 2516.1,2524.8 2558.2,2505.2 325.5,-1989.7 -3401.9,-139.6 -3394.5,-124.8 			"/>
			<polygon class="st30" points="290.5,-1955.7 2515.9,2524.5 2557.9,2505 325.2,-1989.9 -3402.1,-139.9 -3394.7,-125.1 			"/>
			<polygon class="st31" points="290.4,-1956 2515.8,2524.2 2557.6,2504.8 324.9,-1990.1 -3402.3,-140.2 -3394.9,-125.4 			"/>
			<polygon class="st32" points="290.2,-1956.3 2515.6,2523.9 2557.3,2504.6 324.5,-1990.3 -3402.4,-140.6 -3395.1,-125.8 			"/>
			<polygon class="st33" points="290,-1956.6 2515.4,2523.6 2557,2504.4 324.2,-1990.5 -3402.6,-140.9 -3395.3,-126.1 			"/>
			<polygon class="st34" points="289.8,-1956.9 2515.2,2523.3 2556.7,2504.2 323.9,-1990.7 -3402.8,-141.2 -3395.4,-126.4 			"/>
			<polygon class="st35" points="289.6,-1957.3 2515,2522.9 2556.4,2504 323.6,-1990.9 -3403,-141.5 -3395.6,-126.7 			"/>
			<polygon class="st36" points="289.4,-1957.6 2514.9,2522.6 2556,2503.8 323.3,-1991.1 -3403.2,-141.8 -3395.8,-127 			"/>
			<polygon class="st37" points="289.3,-1957.9 2514.7,2522.3 2555.7,2503.6 323,-1991.3 -3403.3,-142.1 -3396,-127.4 			"/>
			<polygon class="st38" points="289.1,-1958.2 2514.5,2522 2555.4,2503.4 322.6,-1991.5 -3403.5,-142.5 -3396.2,-127.7 			"/>
			<polygon class="st39" points="288.9,-1958.5 2514.3,2521.7 2555.1,2503.2 322.3,-1991.7 -3403.7,-142.8 -3396.4,-128 			"/>
			<polygon class="st40" points="288.7,-1958.8 2514.1,2521.4 2554.8,2503 322,-1991.9 -3403.9,-143.1 -3396.5,-128.3 			"/>
			<polygon class="st41" points="288.5,-1959.2 2513.9,2521 2554.5,2502.8 321.7,-1992.1 -3404.1,-143.4 -3396.7,-128.6 			"/>
			<polygon class="st42" points="288.4,-1959.5 2513.8,2520.7 2554.1,2502.6 321.4,-1992.3 -3404.3,-143.7 -3396.9,-128.9 			"/>
			<polygon class="st43" points="288.2,-1959.8 2513.6,2520.4 2553.8,2502.4 321.1,-1992.5 -3404.4,-144.1 -3397.1,-129.3 			"/>
			<polygon class="st44" points="288,-1960.1 2513.4,2520.1 2553.5,2502.2 320.8,-1992.7 -3404.6,-144.4 -3397.3,-129.6 			"/>
			<polygon class="st45" points="287.8,-1960.4 2513.2,2519.8 2553.2,2502 320.4,-1992.9 -3404.8,-144.7 -3397.5,-129.9 			"/>
			<polygon class="st46" points="287.6,-1960.7 2513,2519.4 2552.9,2501.8 320.1,-1993.1 -3405,-145 -3397.6,-130.2 			"/>
			<polygon class="st47" points="287.4,-1961.1 2512.8,2519.1 2552.6,2501.6 319.8,-1993.3 -3405.2,-145.3 -3397.8,-130.5 			"/>
			<polygon class="st48" points="287.3,-1961.4 2512.7,2518.8 2552.2,2501.4 319.5,-1993.5 -3405.4,-145.6 -3398,-130.8 			"/>
			<polygon class="st49" points="287.1,-1961.7 2512.5,2518.5 2551.9,2501.2 319.2,-1993.8 -3405.5,-146 -3398.2,-131.2 			"/>
			<polygon class="st50" points="286.9,-1962 2512.3,2518.2 2551.6,2501 318.9,-1994 -3405.7,-146.3 -3398.4,-131.5 			"/>
			<polygon class="st51" points="286.7,-1962.3 2512.1,2517.9 2551.3,2500.8 318.5,-1994.2 -3405.9,-146.6 -3398.6,-131.8 			"/>
			<polygon class="st52" points="286.5,-1962.7 2511.9,2517.5 2551,2500.6 318.2,-1994.4 -3406.1,-146.9 -3398.7,-132.1 			"/>
			<polygon class="st53" points="286.3,-1963 2511.8,2517.2 2550.7,2500.4 317.9,-1994.6 -3406.3,-147.2 -3398.9,-132.4 			"/>
			<polygon class="st54" points="286.2,-1963.3 2511.6,2516.9 2550.4,2500.2 317.6,-1994.8 -3406.4,-147.5 -3399.1,-132.7 			"/>
			<polygon class="st55" points="286,-1963.6 2511.4,2516.6 2550,2500 317.3,-1995 -3406.6,-147.9 -3399.3,-133.1 			"/>
			<polygon class="st56" points="285.8,-1963.9 2511.2,2516.3 2549.7,2499.8 317,-1995.2 -3406.8,-148.2 -3399.5,-133.4 			"/>
			<polygon class="st57" points="285.6,-1964.2 2511,2516 2549.4,2499.6 316.7,-1995.4 -3407,-148.5 -3399.6,-133.7 			"/>
			<polygon class="st58" points="285.4,-1964.6 2510.8,2515.6 2549.1,2499.4 316.3,-1995.6 -3407.2,-148.8 -3399.8,-134 			"/>
			<polygon class="st59" points="285.3,-1964.9 2510.7,2515.3 2548.8,2499.2 316,-1995.8 -3407.4,-149.1 -3400,-134.3 			"/>
			<polygon class="st60" points="285.1,-1965.2 2510.5,2515 2548.5,2499 315.7,-1996 -3407.5,-149.4 -3400.2,-134.6 			"/>
			<polygon class="st61" points="284.9,-1965.5 2510.3,2514.7 2548.1,2498.8 315.4,-1996.2 -3407.7,-149.8 -3400.4,-135 			"/>
			<polygon class="st62" points="284.7,-1965.8 2510.1,2514.4 2547.8,2498.6 315.1,-1996.4 -3407.9,-150.1 -3400.6,-135.3 			"/>
			<polygon class="st63" points="284.5,-1966.1 2509.9,2514.1 2547.5,2498.4 314.8,-1996.6 -3408.1,-150.4 -3400.7,-135.6 			"/>
			<polygon class="st64" points="284.3,-1966.5 2509.7,2513.7 2547.2,2498.2 314.4,-1996.8 -3408.3,-150.7 -3400.9,-135.9 			"/>
			<polygon class="st65" points="284.2,-1966.8 2509.6,2513.4 2546.9,2498 314.1,-1997 -3408.5,-151 -3401.1,-136.2 			"/>
			<polygon class="st66" points="284,-1967.1 2509.4,2513.1 2546.6,2497.8 313.8,-1997.2 -3408.6,-151.3 -3401.3,-136.6 			"/>
			<polygon class="st67" points="283.8,-1967.4 2509.2,2512.8 2546.2,2497.6 313.5,-1997.4 -3408.8,-151.7 -3401.5,-136.9 			"/>
			<polygon class="st68" points="283.6,-1967.7 2509,2512.5 2545.9,2497.4 313.2,-1997.6 -3409,-152 -3401.7,-137.2 			"/>
			<polygon class="st69" points="283.4,-1968 2508.8,2512.1 2545.6,2497.2 312.9,-1997.8 -3409.2,-152.3 -3401.8,-137.5 			"/>
			<polygon class="st70" points="283.2,-1968.4 2508.6,2511.8 2545.3,2497 312.5,-1998 -3409.4,-152.6 -3402,-137.8 			"/>
			<polygon class="st71" points="283.1,-1968.7 2508.5,2511.5 2545,2496.8 312.2,-1998.2 -3409.6,-152.9 -3402.2,-138.1 			"/>
			<polygon class="st72" points="282.9,-1969 2508.3,2511.2 2544.7,2496.6 311.9,-1998.4 -3409.7,-153.3 -3402.4,-138.5 			"/>
			<polygon class="st73" points="282.7,-1969.3 2508.1,2510.9 2544.4,2496.4 311.6,-1998.6 -3409.9,-153.6 -3402.6,-138.8 			"/>
			<polygon class="st74" points="282.5,-1969.6 2507.9,2510.6 2544,2496.2 311.3,-1998.8 -3410.1,-153.9 -3402.7,-139.1 			"/>
			<polygon class="st75" points="282.3,-1970 2507.7,2510.2 2543.7,2496 311,-1999 -3410.3,-154.2 -3402.9,-139.4 			"/>
			<polygon class="st76" points="282.2,-1970.3 2507.6,2509.9 2543.4,2495.8 310.7,-1999.2 -3410.5,-154.5 -3403.1,-139.7 			"/>
			<polygon class="st77" points="282,-1970.6 2507.4,2509.6 2543.1,2495.6 310.3,-1999.4 -3410.6,-154.8 -3403.3,-140 			"/>
			<polygon class="st78" points="281.8,-1970.9 2507.2,2509.3 2542.8,2495.4 310,-1999.6 -3410.8,-155.2 -3403.5,-140.4 			"/>
			<polygon class="st79" points="281.6,-1971.2 2507,2509 2542.5,2495.2 309.7,-1999.8 -3411,-155.5 -3403.7,-140.7 			"/>
			<polygon class="st80" points="281.4,-1971.5 2506.8,2508.7 2542.1,2495 309.4,-2000 -3411.2,-155.8 -3403.8,-141 			"/>
			<polygon class="st81" points="281.2,-1971.9 2506.6,2508.3 2541.8,2494.8 309.1,-2000.2 -3411.4,-156.1 -3404,-141.3 			"/>
			<polygon class="st82" points="281.1,-1972.2 2506.5,2508 2541.5,2494.6 308.8,-2000.4 -3411.6,-156.4 -3404.2,-141.6 			"/>
			<polygon class="st83" points="280.9,-1972.5 2506.3,2507.7 2541.2,2494.4 308.4,-2000.6 -3411.7,-156.7 -3404.4,-141.9 			"/>
			<polygon class="st84" points="280.7,-1972.8 2506.1,2507.4 2540.9,2494.2 308.1,-2000.8 -3411.9,-157.1 -3404.6,-142.3 			"/>
			<polygon class="st85" points="280.5,-1973.1 2505.9,2507.1 2540.6,2494 307.8,-2001 -3412.1,-157.4 -3404.8,-142.6 			"/>
			<polygon class="st86" points="280.3,-1973.4 2505.7,2506.8 2540.2,2493.8 307.5,-2001.2 -3412.3,-157.7 -3404.9,-142.9 			"/>
			<polygon class="st87" points="280.1,-1973.8 2505.5,2506.4 2539.9,2493.6 307.2,-2001.4 -3412.5,-158 -3405.1,-143.2 			"/>
			<polygon class="st88" points="280,-1974.1 2505.4,2506.1 2539.6,2493.4 306.9,-2001.6 -3412.7,-158.3 -3405.3,-143.5 			"/>
			<polygon class="st89" points="279.8,-1974.4 2505.2,2505.8 2539.3,2493.2 306.5,-2001.8 -3412.8,-158.6 -3405.5,-143.8 			"/>
			<polygon class="st90" points="279.6,-1974.7 2505,2505.5 2539,2493 306.2,-2002 -3413,-159 -3405.7,-144.2 			"/>
			<polygon class="st91" points="279.4,-1975 2504.8,2505.2 2538.7,2492.8 305.9,-2002.2 -3413.2,-159.3 -3405.8,-144.5 			"/>
			<polygon class="st92" points="279.2,-1975.3 2504.6,2504.9 2538.4,2492.6 305.6,-2002.4 -3413.4,-159.6 -3406,-144.8 			"/>
			<polygon class="st93" points="279,-1975.7 2504.5,2504.5 2538,2492.4 305.3,-2002.6 -3413.6,-159.9 -3406.2,-145.1 			"/>
			<polygon class="st94" points="278.9,-1976 2504.3,2504.2 2537.7,2492.2 305,-2002.8 -3413.7,-160.2 -3406.4,-145.4 			"/>
			<polygon class="st95" points="278.7,-1976.3 2504.1,2503.9 2537.4,2492 304.7,-2003 -3413.9,-160.5 -3406.6,-145.8 			"/>
			<polygon class="st96" points="278.5,-1976.6 2503.9,2503.6 2537.1,2491.8 304.3,-2003.2 -3414.1,-160.9 -3406.8,-146.1 			"/>
			<polygon class="st97" points="278.3,-1976.9 2503.7,2503.3 2536.8,2491.6 304,-2003.4 -3414.3,-161.2 -3406.9,-146.4 			"/>
			<polygon class="st98" points="278.1,-1977.2 2503.5,2502.9 2536.5,2491.4 303.7,-2003.6 -3414.5,-161.5 -3407.1,-146.7 			"/>
			<polygon class="st99" points="278,-1977.6 2503.4,2502.6 2536.1,2491.2 303.4,-2003.8 -3414.7,-161.8 -3407.3,-147 			"/>
			<polygon class="st100" points="277.8,-1977.9 2503.2,2502.3 2535.8,2491 303.1,-2004 -3414.8,-162.1 -3407.5,-147.3 			"/>
			<polygon class="st101" points="277.6,-1978.2 2503,2502 2535.5,2490.8 302.8,-2004.2 -3415,-162.5 -3407.7,-147.7 			"/>
			<polygon class="st102" points="277.4,-1978.5 2502.8,2501.7 2535.2,2490.6 302.4,-2004.4 -3415.2,-162.8 -3407.9,-148 			"/>
			<polygon class="st103" points="277.2,-1978.8 2502.6,2501.4 2534.9,2490.4 302.1,-2004.6 -3415.4,-163.1 -3408,-148.3 			"/>
			<polygon class="st104" points="277,-1979.2 2502.4,2501 2534.6,2490.2 301.8,-2004.8 -3415.6,-163.4 -3408.2,-148.6 			"/>
			<polygon class="st105" points="276.9,-1979.5 2502.3,2500.7 2534.3,2490 301.5,-2005 -3415.8,-163.7 -3408.4,-148.9 			"/>
			<polygon class="st106" points="276.7,-1979.8 2502.1,2500.4 2533.9,2489.8 301.2,-2005.2 -3415.9,-164 -3408.6,-149.2 			"/>
			<polygon class="st107" points="276.5,-1980.1 2501.9,2500.1 2533.6,2489.6 300.9,-2005.4 -3416.1,-164.4 -3408.8,-149.6 			"/>
			<polygon class="st108" points="276.3,-1980.4 2501.7,2499.8 2533.3,2489.4 300.6,-2005.6 -3416.3,-164.7 -3409,-149.9 			"/>
			<polygon class="st109" points="276.1,-1980.7 2501.5,2499.5 2533,2489.2 300.2,-2005.8 -3416.5,-165 -3409.1,-150.2 			"/>
			<polygon class="st110" points="275.9,-1981.1 2501.4,2499.1 2532.7,2489 299.9,-2006 -3416.7,-165.3 -3409.3,-150.5 			"/>
			<polygon class="st111" points="275.8,-1981.4 2501.2,2498.8 2532.4,2488.8 299.6,-2006.2 -3416.8,-165.6 -3409.5,-150.8 			"/>
			<polygon class="st112" points="275.6,-1981.7 2501,2498.5 2532,2488.6 299.3,-2006.4 -3417,-165.9 -3409.7,-151.1 			"/>
			<polygon class="st113" points="275.4,-1982 2500.8,2498.2 2531.7,2488.4 299,-2006.6 -3417.2,-166.3 -3409.9,-151.5 			"/>
			<polygon class="st114" points="275.2,-1982.3 2500.6,2497.9 2531.4,2488.2 298.7,-2006.8 -3417.4,-166.6 -3410,-151.8 			"/>
			<polygon class="st115" points="275,-1982.6 2500.4,2497.6 2531.1,2488 298.3,-2007 -3417.6,-166.9 -3410.2,-152.1 			"/>
			<polygon class="st116" points="274.9,-1983 2500.3,2497.2 2530.8,2487.8 298,-2007.2 -3417.8,-167.2 -3410.4,-152.4 			"/>
			<polygon class="st117" points="274.7,-1983.3 2500.1,2496.9 2530.5,2487.6 297.7,-2007.4 -3417.9,-167.5 -3410.6,-152.7 			"/>
			<polygon class="st118" points="274.5,-1983.6 2499.9,2496.6 2530.1,2487.4 297.4,-2007.6 -3418.1,-167.8 -3410.8,-153.1 			"/>
			<polygon class="st119" points="274.3,-1983.9 2499.7,2496.3 2529.8,2487.2 297.1,-2007.8 -3418.3,-168.2 -3411,-153.4 			"/>
			<polygon class="st120" points="274.1,-1984.2 2499.5,2496 2529.5,2487 296.8,-2008 -3418.5,-168.5 -3411.1,-153.7 			"/>
			<polygon class="st121" points="273.9,-1984.5 2499.3,2495.7 2529.2,2486.8 296.4,-2008.2 -3418.7,-168.8 -3411.3,-154 			"/>
			<polygon class="st122" points="273.8,-1984.9 2499.2,2495.3 2528.9,2486.6 296.1,-2008.4 -3418.9,-169.1 -3411.5,-154.3 			"/>
			<polygon class="st123" points="273.6,-1985.2 2499,2495 2528.6,2486.4 295.8,-2008.6 -3419,-169.4 -3411.7,-154.6 			"/>
			<polygon class="st124" points="273.4,-1985.5 2498.8,2494.7 2528.3,2486.2 295.5,-2008.8 -3419.2,-169.8 -3411.9,-155 			"/>
			<polygon class="st125" points="273.2,-1985.8 2498.6,2494.4 2527.9,2486 295.2,-2009 -3419.4,-170.1 -3412.1,-155.3 			"/>
			<polygon class="st126" points="273,-1986.1 2498.4,2494.1 2527.6,2485.8 294.9,-2009.2 -3419.6,-170.4 -3412.2,-155.6 			"/>
			<polygon class="st127" points="272.8,-1986.4 2498.2,2493.7 2527.3,2485.6 294.6,-2009.4 -3419.8,-170.7 -3412.4,-155.9 			"/>
			<polygon class="st128" points="272.7,-1986.8 2498.1,2493.4 2527,2485.4 294.2,-2009.6 -3419.9,-171 -3412.6,-156.2 			"/>
			<polygon class="st129" points="272.5,-1987.1 2497.9,2493.1 2526.7,2485.2 293.9,-2009.8 -3420.1,-171.3 -3412.8,-156.5 			"/>
			<polygon class="st130" points="272.3,-1987.4 2497.7,2492.8 2526.4,2485 293.6,-2010 -3420.3,-171.7 -3413,-156.9 			"/>
			<polygon class="st131" points="272.1,-1987.7 2497.5,2492.5 2526,2484.8 293.3,-2010.2 -3420.5,-172 -3413.1,-157.2 			"/>
			<polygon class="st132" points="271.9,-1988 2497.3,2492.2 2525.7,2484.6 293,-2010.4 -3420.7,-172.3 -3413.3,-157.5 			"/>
			<polygon class="st133" points="271.8,-1988.4 2497.2,2491.8 2525.4,2484.4 292.7,-2010.6 -3420.9,-172.6 -3413.5,-157.8 			"/>
			<polygon class="st134" points="271.6,-1988.7 2497,2491.5 2525.1,2484.2 292.3,-2010.8 -3421,-172.9 -3413.7,-158.1 			"/>
			<polygon class="st135" points="271.4,-1989 2496.8,2491.2 2524.8,2484 292,-2011 -3421.2,-173.2 -3413.9,-158.4 			"/>
			<polygon class="st136" points="271.2,-1989.3 2496.6,2490.9 2524.5,2483.8 291.7,-2011.2 -3421.4,-173.6 -3414.1,-158.8 			"/>
			<polygon class="st137" points="271,-1989.6 2496.4,2490.6 2524.1,2483.6 291.4,-2011.4 -3421.6,-173.9 -3414.2,-159.1 			"/>
			<polygon class="st138" points="270.8,-1989.9 2496.2,2490.3 2523.8,2483.4 291.1,-2011.6 -3421.8,-174.2 -3414.4,-159.4 			"/>
			<polygon class="st139" points="270.7,-1990.3 2496.1,2489.9 2523.5,2483.2 290.8,-2011.8 -3422,-174.5 -3414.6,-159.7 			"/>
			<polygon class="st140" points="270.5,-1990.6 2495.9,2489.6 2523.2,2483 290.4,-2012 -3422.1,-174.8 -3414.8,-160 			"/>
			<polygon class="st141" points="270.3,-1990.9 2495.7,2489.3 2522.9,2482.8 290.1,-2012.2 -3422.3,-175.1 -3415,-160.3 			"/>
			<polygon class="st142" points="270.1,-1991.2 2495.5,2489 2522.6,2482.6 289.8,-2012.4 -3422.5,-175.5 -3415.2,-160.7 			"/>
			<polygon class="st143" points="269.9,-1991.5 2495.3,2488.7 2522.3,2482.4 289.5,-2012.6 -3422.7,-175.8 -3415.3,-161 			"/>
			<polygon class="st144" points="269.7,-1991.8 2495.1,2488.4 2521.9,2482.2 289.2,-2012.8 -3422.9,-176.1 -3415.5,-161.3 			"/>
			<polygon class="st145" points="269.6,-1992.2 2495,2488 2521.6,2482 288.9,-2013 -3423.1,-176.4 -3415.7,-161.6 			"/>
			<polygon class="st146" points="269.4,-1992.5 2494.8,2487.7 2521.3,2481.8 288.6,-2013.2 -3423.2,-176.7 -3415.9,-161.9 			"/>
			<polygon class="st147" points="269.2,-1992.8 2494.6,2487.4 2521,2481.6 288.2,-2013.4 -3423.4,-177 -3416.1,-162.3 			"/>
			<polygon class="st148" points="269,-1993.1 2494.4,2487.1 2520.7,2481.4 287.9,-2013.6 -3423.6,-177.4 -3416.2,-162.6 			"/>
			<polygon class="st149" points="268.8,-1993.4 2494.2,2486.8 2520.4,2481.2 287.6,-2013.8 -3423.8,-177.7 -3416.4,-162.9 			"/>
			<polygon class="st150" points="268.6,-1993.7 2494.1,2486.4 2520,2481 287.3,-2014 -3424,-178 -3416.6,-163.2 			"/>
			<polygon class="st151" points="268.5,-1994.1 2493.9,2486.1 2519.7,2480.8 287,-2014.2 -3424.1,-178.3 -3416.8,-163.5 			"/>
			<polygon class="st152" points="268.3,-1994.4 2493.7,2485.8 2519.4,2480.6 286.7,-2014.4 -3424.3,-178.6 -3417,-163.8 			"/>
			<polygon class="st153" points="268.1,-1994.7 2493.5,2485.5 2519.1,2480.4 286.3,-2014.6 -3424.5,-179 -3417.2,-164.2 			"/>
			<polygon class="st154" points="267.9,-1995 2493.3,2485.2 2518.8,2480.2 286,-2014.8 -3424.7,-179.3 -3417.3,-164.5 			"/>
			<polygon class="st155" points="267.7,-1995.3 2493.1,2484.9 2518.5,2480 285.7,-2015 -3424.9,-179.6 -3417.5,-164.8 			"/>
			<polygon class="st156" points="267.6,-1995.7 2493,2484.5 2518.1,2479.8 285.4,-2015.2 -3425.1,-179.9 -3417.7,-165.1 			"/>
			<polygon class="st157" points="267.4,-1996 2492.8,2484.2 2517.8,2479.6 285.1,-2015.4 -3425.2,-180.2 -3417.9,-165.4 			"/>
			<polygon class="st158" points="267.2,-1996.3 2492.6,2483.9 2517.5,2479.4 284.8,-2015.6 -3425.4,-180.5 -3418.1,-165.7 			"/>
		</g>
	</g>
</g>
</svg>
